<?xml version="1.0" encoding="UTF-8"?>
<svg xmlns="http://www.w3.org/2000/svg" xmlns:xlink="http://www.w3.org/1999/xlink" width="3000" height="3000" viewBox="0 0 3000 3000">
<defs>
<clipPath id="clip-0">
<path clip-rule="nonzero" d="M 1178 358 L 1803 358 L 1803 743 L 1178 743 Z M 1178 358 "/>
</clipPath>
<clipPath id="clip-1">
<path clip-rule="evenodd" d="M 1486.46875 358.171875 C 1259.019531 365.210938 1159.949219 649.609375 1181.289062 762.179688 C 1187.449219 794.679688 1193.609375 827.320312 1214.171875 852.980469 C 1278.78125 933.601562 1528.929688 939.539062 1625.699219 922.050781 C 1807.21875 889.25 1813.320312 814.289062 1795.351562 664 C 1782.210938 554.089844 1679.460938 352.191406 1486.46875 358.171875 Z M 1486.46875 358.171875 "/>
</clipPath>
<clipPath id="clip-2">
<path clip-rule="nonzero" d="M 481 406 L 532 406 L 532 640 L 481 640 Z M 481 406 "/>
</clipPath>
<clipPath id="clip-3">
<path clip-rule="evenodd" d="M 570.796875 406.429688 C 343.34375 413.21875 259.179688 689.800781 280.519531 798.488281 C 286.683594 829.871094 292.839844 861.390625 313.398438 886.160156 C 378.015625 964.011719 612.789062 965.070312 710.027344 950.878906 C 868.917969 927.679688 891.617188 857.320312 879.671875 701.71875 C 871.488281 595.140625 763.789062 400.660156 570.796875 406.429688 Z M 570.796875 406.429688 "/>
</clipPath>
<clipPath id="clip-4">
<path clip-rule="nonzero" d="M 559 406 L 593 406 L 593 590 L 559 590 Z M 559 406 "/>
</clipPath>
<clipPath id="clip-5">
<path clip-rule="evenodd" d="M 570.796875 406.429688 C 343.34375 413.21875 259.179688 689.800781 280.519531 798.488281 C 286.683594 829.871094 292.839844 861.390625 313.398438 886.160156 C 378.015625 964.011719 612.789062 965.070312 710.027344 950.878906 C 868.917969 927.679688 891.617188 857.320312 879.671875 701.71875 C 871.488281 595.140625 763.789062 400.660156 570.796875 406.429688 Z M 570.796875 406.429688 "/>
</clipPath>
<clipPath id="clip-6">
<path clip-rule="nonzero" d="M 623 406 L 664 406 L 664 627 L 623 627 Z M 623 406 "/>
</clipPath>
<clipPath id="clip-7">
<path clip-rule="evenodd" d="M 570.796875 406.429688 C 343.34375 413.21875 259.179688 689.800781 280.519531 798.488281 C 286.683594 829.871094 292.839844 861.390625 313.398438 886.160156 C 378.015625 964.011719 612.789062 965.070312 710.027344 950.878906 C 868.917969 927.679688 891.617188 857.320312 879.671875 701.71875 C 871.488281 595.140625 763.789062 400.660156 570.796875 406.429688 Z M 570.796875 406.429688 "/>
</clipPath>
<clipPath id="clip-8">
<path clip-rule="nonzero" d="M 381 1238 L 481 1238 L 481 1538 L 381 1538 Z M 381 1238 "/>
</clipPath>
<clipPath id="clip-9">
<path clip-rule="evenodd" d="M 502.167969 1442.539062 C 500.179688 1446.519531 503.238281 1433.890625 503.496094 1429.550781 C 504.046875 1420.390625 504.8125 1411.238281 505.144531 1402.070312 C 506.078125 1376.289062 504.632812 1350.460938 501.230469 1324.851562 C 493.074219 1263.390625 443.894531 1112.910156 339.617188 1162.558594 C 274.3125 1193.660156 254.359375 1280.28125 240.546875 1338.75 C 235.878906 1358.519531 222.574219 1396.609375 248.710938 1409.929688 C 294.070312 1433.050781 362.664062 1359.949219 377.761719 1328.269531 C 384.519531 1314.101562 388.519531 1299.738281 391.320312 1284.609375 C 392.007812 1280.921875 391.75 1263.460938 396.210938 1261.089844 C 396.296875 1261.050781 396.40625 1261.019531 396.488281 1261.089844 C 398.96875 1263.28125 434.457031 1431.351562 436.246094 1442.179688 C 439.664062 1462.878906 442.167969 1483.679688 443.855469 1504.550781 C 444.558594 1513.238281 445.3125 1522.050781 444.730469 1530.761719 C 444.710938 1531.089844 443.972656 1537.671875 443.257812 1537.25 C 436.117188 1533.039062 472.960938 1524.53125 475.679688 1523.589844 C 500.109375 1515.160156 506.824219 1507.808594 507.367188 1483.800781 "/>
</clipPath>
<clipPath id="clip-10">
<path clip-rule="nonzero" d="M 679 1238 L 779 1238 L 779 1538 L 679 1538 Z M 679 1238 "/>
</clipPath>
<clipPath id="clip-11">
<path clip-rule="evenodd" d="M 657.527344 1442.539062 C 659.515625 1446.519531 656.457031 1433.890625 656.199219 1429.550781 C 655.648438 1420.390625 654.882812 1411.238281 654.550781 1402.070312 C 653.617188 1376.289062 655.0625 1350.460938 658.464844 1324.851562 C 666.621094 1263.390625 715.800781 1112.910156 820.078125 1162.558594 C 885.386719 1193.660156 905.335938 1280.28125 919.148438 1338.75 C 923.816406 1358.519531 937.121094 1396.609375 910.984375 1409.929688 C 865.625 1433.050781 797.03125 1359.949219 781.933594 1328.269531 C 775.175781 1314.101562 771.175781 1299.738281 768.371094 1284.609375 C 767.6875 1280.921875 767.945312 1263.460938 763.484375 1261.089844 C 763.398438 1261.050781 763.289062 1261.019531 763.207031 1261.089844 C 760.726562 1263.28125 725.238281 1431.351562 723.449219 1442.179688 C 720.03125 1462.878906 717.527344 1483.679688 715.839844 1504.550781 C 715.136719 1513.238281 714.382812 1522.050781 714.964844 1530.761719 C 714.984375 1531.089844 715.726562 1537.671875 716.4375 1537.25 C 723.578125 1533.039062 686.734375 1524.53125 684.015625 1523.589844 C 659.589844 1515.160156 652.871094 1507.808594 652.328125 1483.800781 "/>
</clipPath>
<clipPath id="clip-12">
<path clip-rule="nonzero" d="M 334 1595 L 826 1595 L 826 1869 L 334 1869 Z M 334 1595 "/>
</clipPath>
<clipPath id="clip-13">
<path clip-rule="evenodd" d="M 584.957031 1380.140625 C 463.21875 1398.96875 419.332031 1460.160156 363.359375 1549.808594 C 320.351562 1618.691406 267.734375 1672.339844 311.710938 1757.851562 C 360.640625 1852.988281 486.679688 1864.800781 587.675781 1868.230469 C 695.707031 1871.898438 811.347656 1849.511719 848.253906 1767.179688 C 894.847656 1663.238281 838.695312 1619.039062 807.636719 1553.328125 C 794.347656 1525.230469 714.289062 1360.148438 584.957031 1380.140625 Z M 584.957031 1380.140625 "/>
</clipPath>
<clipPath id="clip-14">
<path clip-rule="nonzero" d="M 539 1814 L 645 1814 L 645 1869 L 539 1869 Z M 539 1814 "/>
</clipPath>
<clipPath id="clip-15">
<path clip-rule="evenodd" d="M 336.761719 1828.070312 C 333.746094 1827.78125 334.945312 1825.800781 336.136719 1823.359375 C 343.5 1808.289062 359.441406 1798.308594 373.324219 1790.019531 C 412 1766.941406 456.90625 1767.03125 497.089844 1749.121094 C 534.113281 1732.609375 542.957031 1603.160156 575.871094 1595.898438 C 615.320312 1587.191406 637.863281 1716.839844 664.769531 1735.578125 C 700.761719 1760.648438 747.496094 1758.671875 785.117188 1780.53125 C 802.4375 1790.601562 824.160156 1805.398438 825.210938 1827.519531 C 827.382812 1873.121094 770 1890.980469 735.1875 1898.910156 C 643.796875 1919.730469 536.125 1912.648438 445.46875 1890.511719 C 418.585938 1883.949219 342.226562 1863.769531 336.761719 1828.070312 Z M 336.761719 1828.070312 "/>
</clipPath>
<clipPath id="clip-16">
<path clip-rule="evenodd" d="M 584.957031 1380.140625 C 463.21875 1398.96875 419.332031 1460.160156 363.359375 1549.808594 C 320.351562 1618.691406 267.734375 1672.339844 311.710938 1757.851562 C 360.640625 1852.988281 486.679688 1864.800781 587.675781 1868.230469 C 695.707031 1871.898438 811.347656 1849.511719 848.253906 1767.179688 C 894.847656 1663.238281 838.695312 1619.039062 807.636719 1553.328125 C 794.347656 1525.230469 714.289062 1360.148438 584.957031 1380.140625 Z M 584.957031 1380.140625 "/>
</clipPath>
<clipPath id="clip-17">
<path clip-rule="nonzero" d="M 1123 1712 L 1850 1712 L 1850 1894 L 1123 1894 Z M 1123 1712 "/>
</clipPath>
<clipPath id="clip-18">
<path clip-rule="evenodd" d="M 1711.691406 1446.769531 C 1623.238281 1314.789062 1551.550781 1304.160156 1471.558594 1308.191406 C 1366.5 1313.480469 1316.460938 1371.738281 1272.769531 1421.511719 C 1195.539062 1509.46875 1228.140625 1562.921875 1183.960938 1635.269531 C 1172.339844 1654.308594 1124.621094 1677.03125 1123.691406 1698.910156 C 1122.789062 1719.96875 1177.71875 1708.808594 1184.410156 1719.148438 C 1186.089844 1721.738281 1139.109375 1751.039062 1137.058594 1752.609375 C 1110.101562 1773.171875 1181.738281 1771.21875 1192.929688 1782.410156 C 1205.359375 1794.839844 1175.558594 1809.179688 1193.820312 1819.75 C 1253.148438 1854.101562 1312.058594 1836.429688 1373.300781 1851.269531 C 1421.101562 1862.859375 1445.28125 1892.011719 1496.648438 1893.578125 C 1538.929688 1894.871094 1575.488281 1862.828125 1611.339844 1851.769531 C 1671.351562 1833.25 1747.921875 1867.359375 1796.191406 1813.480469 C 1804.851562 1803.808594 1804.878906 1793.019531 1791.039062 1790.851562 C 1743.839844 1783.449219 1840.441406 1791.300781 1849.078125 1759.78125 C 1851.300781 1751.671875 1833.511719 1743.449219 1829.050781 1736.921875 C 1825.960938 1732.390625 1822.28125 1728.199219 1818.601562 1724.148438 C 1814.871094 1720.039062 1810.851562 1716.191406 1806.570312 1712.648438 C 1785.609375 1695.320312 1832.460938 1701.5 1839.519531 1692.878906 C 1841.621094 1690.308594 1838 1685.960938 1836.609375 1684.058594 C 1828.191406 1672.539062 1783.378906 1664.910156 1764.261719 1617.609375 C 1738.800781 1554.660156 1722.269531 1462.558594 1711.691406 1446.769531 Z M 1711.691406 1446.769531 "/>
</clipPath>
<clipPath id="clip-19">
<path clip-rule="nonzero" d="M 2064 1227 L 2290 1227 L 2290 1460 L 2064 1460 Z M 2064 1227 "/>
</clipPath>
<clipPath id="clip-20">
<path clip-rule="evenodd" d="M 2209.808594 1213.449219 C 2290.050781 1213.449219 2355.191406 1279.03125 2355.191406 1359.789062 C 2355.191406 1440.558594 2290.050781 1506.128906 2209.808594 1506.128906 C 2129.578125 1506.128906 2064.441406 1440.558594 2064.441406 1359.789062 C 2064.441406 1279.03125 2129.578125 1213.449219 2209.808594 1213.449219 Z M 2209.808594 1213.449219 "/>
</clipPath>
<clipPath id="clip-21">
<path clip-rule="nonzero" d="M 2506 1227 L 2744 1227 L 2744 1454 L 2506 1454 Z M 2506 1227 "/>
</clipPath>
<clipPath id="clip-22">
<path clip-rule="evenodd" d="M 2598.421875 1213.449219 C 2518.191406 1213.449219 2453.039062 1279.03125 2453.039062 1359.789062 C 2453.039062 1440.558594 2518.191406 1506.128906 2598.421875 1506.128906 C 2678.648438 1506.128906 2743.789062 1440.558594 2743.789062 1359.789062 C 2743.789062 1279.03125 2678.648438 1213.449219 2598.421875 1213.449219 Z M 2598.421875 1213.449219 "/>
</clipPath>
<clipPath id="clip-23">
<path clip-rule="nonzero" d="M 2113 1346 L 2699 1346 L 2699 1803 L 2113 1803 Z M 2113 1346 "/>
</clipPath>
<clipPath id="clip-24">
<path clip-rule="evenodd" d="M 2415.488281 1290.78125 C 2221.960938 1309.890625 2248.75 1427.28125 2182.53125 1478.339844 C 2120.871094 1525.890625 2081.890625 1575.53125 2077.398438 1619.308594 C 2072.621094 1665.898438 2080.988281 1683.820312 2112.300781 1733.960938 C 2160.46875 1811.089844 2241.480469 1801.101562 2319.410156 1812 C 2345.828125 1815.691406 2370.390625 1826.808594 2397.449219 1827.039062 C 2437.21875 1827.378906 2473.46875 1819.621094 2512.328125 1813.03125 C 2580.308594 1801.488281 2637.171875 1805.019531 2691.460938 1750.71875 C 2720.128906 1722.050781 2749.960938 1704.441406 2738.058594 1618.121094 C 2728.5 1548.820312 2672.289062 1515.371094 2622.121094 1474.761719 C 2569.589844 1432.230469 2593.5 1305.109375 2415.488281 1290.78125 Z M 2415.488281 1290.78125 "/>
</clipPath>
<clipPath id="clip-25">
<path clip-rule="nonzero" d="M 2118 1290 L 2599 1290 L 2599 1648 L 2118 1648 Z M 2118 1290 "/>
</clipPath>
<clipPath id="clip-26">
<path clip-rule="evenodd" d="M 2415.488281 1290.78125 C 2221.960938 1309.890625 2248.75 1427.28125 2182.53125 1478.339844 C 2120.871094 1525.890625 2081.890625 1575.53125 2077.398438 1619.308594 C 2072.621094 1665.898438 2080.988281 1683.820312 2112.300781 1733.960938 C 2160.46875 1811.089844 2241.480469 1801.101562 2319.410156 1812 C 2345.828125 1815.691406 2370.390625 1826.808594 2397.449219 1827.039062 C 2437.21875 1827.378906 2473.46875 1819.621094 2512.328125 1813.03125 C 2580.308594 1801.488281 2637.171875 1805.019531 2691.460938 1750.71875 C 2720.128906 1722.050781 2749.960938 1704.441406 2738.058594 1618.121094 C 2728.5 1548.820312 2672.289062 1515.371094 2622.121094 1474.761719 C 2569.589844 1432.230469 2593.5 1305.109375 2415.488281 1290.78125 Z M 2415.488281 1290.78125 "/>
</clipPath>
<clipPath id="clip-27">
<path clip-rule="nonzero" d="M 1178 2160 L 1775 2160 L 1775 2694 L 1178 2694 Z M 1178 2160 "/>
</clipPath>
<clipPath id="clip-28">
<path clip-rule="evenodd" d="M 1459.691406 2140.089844 C 1426.210938 2139.902344 1375.410156 2156.324219 1346.058594 2170.425781 C 1292.089844 2196.355469 1255.320312 2232.863281 1220.710938 2282.835938 C 1125.03125 2420.972656 1135.339844 2647.457031 1314.03125 2704.199219 C 1425.210938 2739.503906 1594.609375 2742.261719 1703.320312 2678.480469 C 1920.640625 2550.976562 1798.949219 2141.996094 1459.691406 2140.089844 Z M 1459.691406 2140.089844 "/>
</clipPath>
</defs>
<rect x="-300" y="-300" width="3600" height="3600" fill="#051240" fill-opacity="1"/>
<path fill-rule="evenodd" fill="rgb(83.59375%, 83.984375%, 84.764099%)" fill-opacity="1" d="M 842.675781 2106.628906 C 776.453125 2068.394531 691.90625 2090.664062 653.996094 2156.332031 C 616.082031 2222 639.066406 2306.355469 705.289062 2344.589844 C 771.511719 2382.820312 856.054688 2360.550781 893.96875 2294.882812 C 931.882812 2229.214844 908.898438 2144.859375 842.675781 2106.628906 "/>
<path fill-rule="evenodd" fill="rgb(16.50238%, 17.30957%, 18.406677%)" fill-opacity="1" d="M 826.121094 2144.285156 C 777.429688 2116.171875 714.476562 2133.910156 685.632812 2183.875 C 656.785156 2233.835938 672.898438 2297.222656 721.59375 2325.335938 C 770.285156 2353.449219 833.238281 2335.710938 862.085938 2285.75 C 890.929688 2235.785156 874.816406 2172.398438 826.121094 2144.285156 "/>
<path fill-rule="evenodd" fill="rgb(83.59375%, 83.984375%, 84.764099%)" fill-opacity="1" d="M 317.019531 2106.628906 C 383.242188 2068.394531 467.785156 2090.664062 505.699219 2156.332031 C 543.613281 2222 520.628906 2306.355469 454.40625 2344.589844 C 388.183594 2382.820312 303.640625 2360.550781 265.726562 2294.882812 C 227.816406 2229.214844 250.796875 2144.859375 317.019531 2106.628906 "/>
<path fill-rule="evenodd" fill="rgb(16.50238%, 17.30957%, 18.406677%)" fill-opacity="1" d="M 333.574219 2144.285156 C 382.265625 2116.171875 445.21875 2133.910156 474.0625 2183.875 C 502.910156 2233.835938 486.796875 2297.222656 438.101562 2325.335938 C 389.410156 2353.449219 326.457031 2335.710938 297.613281 2285.75 C 268.765625 2235.785156 284.878906 2172.398438 333.574219 2144.285156 "/>
<path fill-rule="evenodd" fill="rgb(86.131287%, 86.71875%, 87.109375%)" fill-opacity="1" d="M 382.4375 2237.5 C 363.847656 2244.605469 329.550781 2296.058594 318.523438 2310.878906 C 253.179688 2398.699219 194.855469 2549.71875 292.222656 2641.933594 C 430.414062 2772.8125 736.246094 2732.191406 838.988281 2674.847656 C 1078.609375 2541.105469 738.40625 1953.179688 382.4375 2237.5 "/>
<path fill-rule="evenodd" fill="rgb(100%, 100%, 100%)" fill-opacity="1" d="M 558.167969 2186.367188 C 488.550781 2186.15625 374.6875 2267.949219 345.640625 2310.136719 C 245.289062 2455.886719 274.980469 2561.339844 358.839844 2618.78125 C 455.730469 2685.152344 625.679688 2677.90625 731.519531 2649.421875 C 790.914062 2633.4375 830.394531 2604.046875 861.738281 2543.097656 C 927.574219 2415.082031 792.449219 2187.085938 558.167969 2186.367188 "/>
<path fill-rule="evenodd" fill="rgb(21.604919%, 21.604919%, 21.604919%)" fill-opacity="1" d="M 477.105469 2391.664062 C 497.546875 2391.664062 514.140625 2408.261719 514.140625 2428.699219 C 514.140625 2449.140625 497.546875 2465.734375 477.105469 2465.734375 C 456.664062 2465.734375 440.070312 2449.140625 440.070312 2428.699219 C 440.070312 2408.261719 456.664062 2391.664062 477.105469 2391.664062 "/>
<path fill-rule="evenodd" fill="rgb(91.40625%, 92.1875%, 93.75%)" fill-opacity="1" d="M 477.703125 2408.390625 C 485.285156 2408.390625 491.441406 2414.546875 491.441406 2422.132812 C 491.441406 2429.714844 485.285156 2435.867188 477.703125 2435.867188 C 470.121094 2435.867188 463.964844 2429.714844 463.964844 2422.132812 C 463.964844 2414.546875 470.121094 2408.390625 477.703125 2408.390625 "/>
<path fill-rule="evenodd" fill="rgb(21.604919%, 21.604919%, 21.604919%)" fill-opacity="1" d="M 682.589844 2391.664062 C 703.027344 2391.664062 719.625 2408.261719 719.625 2428.699219 C 719.625 2449.140625 703.027344 2465.734375 682.589844 2465.734375 C 662.148438 2465.734375 645.554688 2449.140625 645.554688 2428.699219 C 645.554688 2408.261719 662.148438 2391.664062 682.589844 2391.664062 "/>
<path fill-rule="evenodd" fill="rgb(91.40625%, 92.1875%, 93.75%)" fill-opacity="1" d="M 683.1875 2408.390625 C 690.769531 2408.390625 696.925781 2414.546875 696.925781 2422.132812 C 696.925781 2429.714844 690.769531 2435.867188 683.1875 2435.867188 C 675.605469 2435.867188 669.449219 2429.714844 669.449219 2422.132812 C 669.449219 2414.546875 675.605469 2408.390625 683.1875 2408.390625 "/>
<path fill-rule="evenodd" fill="rgb(3.900146%, 4.299927%, 4.299927%)" fill-opacity="1" d="M 521.378906 2544.417969 C 519.941406 2537.929688 511.820312 2521.722656 529.605469 2508.421875 C 541.109375 2499.816406 566.769531 2493.097656 581.113281 2494.242188 C 610.980469 2496.632812 650.21875 2503.234375 639.652344 2544.417969 C 637.78125 2551.703125 634.039062 2560.117188 631.289062 2567.117188 C 627.734375 2576.160156 618.949219 2586.605469 610.980469 2592.207031 C 566.777344 2623.269531 528.25 2575.480469 521.378906 2544.417969 "/>
<path fill-rule="evenodd" fill="rgb(83.59375%, 83.59375%, 83.59375%)" fill-opacity="1" d="M 538.179688 2522.253906 C 546.152344 2513.59375 557.09375 2511.214844 568.304688 2510.019531 C 582.890625 2508.464844 598.484375 2508.804688 612.292969 2514.386719 C 616.835938 2516.222656 630.691406 2528.617188 623.730469 2534.472656 C 616.15625 2540.839844 597.769531 2533.671875 589.59375 2533.167969 C 585.1875 2532.898438 580.738281 2532.8125 576.351562 2533.296875 C 562.589844 2534.820312 563.144531 2537.144531 549.21875 2538.570312 C 543.785156 2539.128906 536.546875 2537.621094 536.476562 2530.671875 C 536.449219 2527.808594 537.199219 2524.945312 538.179688 2522.253906 "/>
<path fill-rule="evenodd" fill="rgb(94.53125%, 94.139099%, 93.359375%)" fill-opacity="1" d="M 1486.46875 358.171875 C 1259.019531 365.210938 1159.949219 649.609375 1181.289062 762.179688 C 1187.449219 794.679688 1193.609375 827.320312 1214.171875 852.980469 C 1278.78125 933.601562 1528.929688 939.539062 1625.699219 922.050781 C 1807.21875 889.25 1813.320312 814.289062 1795.351562 664 C 1782.210938 554.089844 1679.460938 352.191406 1486.46875 358.171875 "/>
<g clip-path="url(#clip-0)">
<g clip-path="url(#clip-1)">
<path fill-rule="evenodd" fill="rgb(76.171875%, 56.443787%, 37.010193%)" fill-opacity="1" d="M 1161.75 741.050781 C 1181.75 746.878906 1272.078125 733.289062 1354.511719 659.21875 C 1377.429688 638.628906 1430.789062 538.980469 1484.730469 537.371094 C 1516.101562 536.429688 1565.960938 632.121094 1581.5 653.25 C 1611.371094 693.871094 1672.300781 729.710938 1726.058594 730.898438 C 1738.78125 731.191406 1818.761719 741.660156 1823.691406 727.429688 C 1833.621094 698.71875 1762.160156 572.070312 1747.378906 545.050781 C 1720.800781 496.480469 1680.011719 454.160156 1642.359375 410.828125 C 1487.191406 232.300781 1147.660156 431.789062 1161.75 741.050781 "/>
</g>
</g>
<path fill-rule="evenodd" fill="rgb(67.771912%, 41.209412%, 3.500366%)" fill-opacity="1" d="M 1382.898438 370.371094 C 1377.328125 356.039062 1053.011719 320.71875 1094.089844 510.960938 C 1101.351562 544.589844 1178.871094 711.949219 1232.871094 673.171875 C 1263.828125 650.929688 1279.761719 594.109375 1299.988281 562.5 C 1332.570312 511.601562 1392.820312 452.238281 1381.738281 385.75 "/>
<path fill-rule="evenodd" fill="rgb(67.771912%, 41.209412%, 3.500366%)" fill-opacity="1" d="M 1590.050781 370.371094 C 1595.621094 356.039062 1919.929688 320.71875 1878.859375 510.960938 C 1871.601562 544.589844 1794.078125 711.949219 1740.078125 673.171875 C 1709.121094 650.929688 1693.191406 594.109375 1672.949219 562.5 C 1640.378906 511.601562 1580.121094 452.238281 1591.210938 385.75 "/>
<path fill-rule="evenodd" fill="rgb(21.99707%, 21.99707%, 21.99707%)" fill-opacity="1" d="M 1376.019531 656.699219 C 1397.121094 656.699219 1414.25 673.828125 1414.25 694.929688 C 1414.25 716.03125 1397.121094 733.160156 1376.019531 733.160156 C 1354.921875 733.160156 1337.789062 716.03125 1337.789062 694.929688 C 1337.789062 673.828125 1354.921875 656.699219 1376.019531 656.699219 "/>
<path fill-rule="evenodd" fill="rgb(91.40625%, 91.40625%, 91.40625%)" fill-opacity="1" d="M 1383.191406 671.039062 C 1392.421875 671.039062 1399.910156 678.53125 1399.910156 687.769531 C 1399.910156 697 1392.421875 704.488281 1383.191406 704.488281 C 1373.960938 704.488281 1366.460938 697 1366.460938 687.769531 C 1366.460938 678.53125 1373.960938 671.039062 1383.191406 671.039062 "/>
<path fill-rule="evenodd" fill="rgb(21.99707%, 21.99707%, 21.99707%)" fill-opacity="1" d="M 1613.761719 656.699219 C 1634.859375 656.699219 1651.988281 673.828125 1651.988281 694.929688 C 1651.988281 716.03125 1634.859375 733.160156 1613.761719 733.160156 C 1592.660156 733.160156 1575.53125 716.03125 1575.53125 694.929688 C 1575.53125 673.828125 1592.660156 656.699219 1613.761719 656.699219 "/>
<path fill-rule="evenodd" fill="rgb(91.40625%, 91.40625%, 91.40625%)" fill-opacity="1" d="M 1620.929688 671.039062 C 1630.160156 671.039062 1637.648438 678.53125 1637.648438 687.769531 C 1637.648438 697 1630.160156 704.488281 1620.929688 704.488281 C 1611.691406 704.488281 1604.199219 697 1604.199219 687.769531 C 1604.199219 678.53125 1611.691406 671.039062 1620.929688 671.039062 "/>
<path fill-rule="evenodd" fill="rgb(9.008789%, 9.008789%, 8.59375%)" fill-opacity="1" d="M 1500.121094 868.261719 C 1479.820312 868.359375 1446.058594 834.621094 1453.539062 808.429688 C 1458.320312 791.699219 1486.921875 788.121094 1496.550781 788.121094 C 1513.269531 788.121094 1552.488281 790.269531 1551.488281 813.308594 C 1550.289062 840.789062 1521.640625 868.160156 1500.121094 868.261719 "/>
<path fill-rule="evenodd" fill="rgb(85.546875%, 85.15625%, 84.375%)" fill-opacity="1" d="M 1463.238281 810.558594 C 1463.828125 806.921875 1472.941406 799.941406 1477.261719 798.308594 C 1492.648438 792.519531 1517.738281 791.789062 1532.640625 801.878906 C 1537.628906 805.261719 1541.660156 812.859375 1534.828125 816.75 C 1531.46875 818.660156 1526.898438 818.421875 1523.210938 817.929688 C 1514.660156 816.789062 1505.730469 810.710938 1497.078125 811.511719 C 1489.421875 812.210938 1483.871094 819.050781 1476.359375 820.398438 C 1472.5 821.089844 1461.730469 819.808594 1463.238281 810.558594 "/>
<path fill-rule="evenodd" fill="rgb(91.796875%, 47.509766%, 54.881287%)" fill-opacity="1" d="M 1449.378906 897.941406 C 1433.359375 898.109375 1414.039062 877.671875 1414.25 877.800781 C 1417.75 879.988281 1435.03125 884.039062 1438.988281 884.96875 C 1448.140625 887.121094 1457.769531 888.058594 1467.128906 886.890625 C 1475.941406 885.789062 1483.980469 883.300781 1490.941406 877.699219 C 1492.921875 876.101562 1499.710938 867.921875 1502.511719 868.269531 C 1503.300781 868.371094 1512.988281 881.730469 1517.03125 884.640625 C 1537.300781 899.300781 1593.160156 880.210938 1593.160156 880.210938 C 1593.160156 880.210938 1589.808594 883.210938 1588.488281 884.308594 C 1584.789062 887.378906 1580.011719 892.160156 1574.339844 894.519531 C 1562.730469 899.359375 1553.988281 900.648438 1553.851562 901.699219 C 1551.621094 917.980469 1554.039062 932.171875 1545.96875 947.78125 C 1531.03125 976.699219 1493.03125 984.660156 1468.238281 962.558594 C 1455.960938 951.609375 1450.648438 936.148438 1449.441406 920.171875 C 1449.101562 915.730469 1453.769531 897.898438 1449.378906 897.941406 "/>
<path fill-rule="evenodd" fill="rgb(73.242188%, 35.301208%, 41.992188%)" fill-opacity="1" d="M 1497.609375 905.5 C 1497.488281 900.28125 1497.789062 894.988281 1498.160156 889.800781 C 1498.390625 886.730469 1498.679688 883.660156 1499.070312 880.609375 C 1499.378906 878.109375 1501.570312 861.550781 1503.390625 871.320312 C 1503.578125 872.339844 1503.71875 873.320312 1503.839844 874.359375 C 1504.089844 876.441406 1504.261719 878.53125 1504.378906 880.628906 C 1505.160156 893.890625 1504.621094 907.410156 1503.601562 920.628906 C 1503.238281 925.289062 1502.851562 930 1502.011719 934.558594 C 1501.328125 938.210938 1499.5 938.710938 1498.949219 935.03125 C 1498.75 933.730469 1498.589844 932.25 1498.46875 930.941406 C 1498.238281 928.269531 1497.730469 908.289062 1497.609375 905.5 "/>
<path fill-rule="evenodd" fill="rgb(98.4375%, 69.334412%, 35.693359%)" fill-opacity="1" d="M 634.695312 441.449219 C 629.410156 443.261719 643.785156 435.089844 648.632812 432.371094 C 659.621094 426.191406 670.847656 420.421875 682.460938 415.398438 C 699.054688 408.230469 812.972656 366.519531 819.175781 376.089844 C 831.457031 395.019531 833.792969 502.109375 833.683594 526.539062 C 833.648438 534.761719 836.261719 568.851562 825.417969 573.058594 C 802.257812 582.050781 655.613281 451.300781 634.695312 441.449219 "/>
<path fill-rule="evenodd" fill="rgb(97.264099%, 60.351562%, 27.197266%)" fill-opacity="1" d="M 664.742188 464.601562 C 665 464.910156 677.578125 457.351562 678.90625 456.628906 C 692.320312 449.421875 787.539062 401.789062 794.910156 419.050781 C 802.253906 436.230469 801.484375 535.769531 785.546875 540.941406 C 756.074219 550.511719 685.15625 483.53125 664.742188 464.601562 "/>
<path fill-rule="evenodd" fill="rgb(98.4375%, 69.334412%, 35.693359%)" fill-opacity="1" d="M 518.609375 441.449219 C 523.894531 443.261719 509.519531 435.089844 504.675781 432.371094 C 493.683594 426.191406 482.457031 420.421875 470.84375 415.398438 C 454.25 408.230469 340.332031 366.519531 334.128906 376.089844 C 321.851562 395.019531 319.511719 502.109375 319.621094 526.539062 C 319.660156 534.761719 317.046875 568.851562 327.886719 573.058594 C 351.046875 582.050781 497.695312 451.300781 518.609375 441.449219 "/>
<path fill-rule="evenodd" fill="rgb(97.264099%, 60.351562%, 27.197266%)" fill-opacity="1" d="M 488.566406 464.601562 C 488.308594 464.910156 475.726562 457.351562 474.398438 456.628906 C 460.984375 449.421875 365.769531 401.789062 358.394531 419.050781 C 351.050781 436.230469 351.820312 535.769531 367.757812 540.941406 C 397.230469 550.511719 468.148438 483.53125 488.566406 464.601562 "/>
<path fill-rule="evenodd" fill="rgb(98.4375%, 69.334412%, 35.78949%)" fill-opacity="1" d="M 570.796875 406.429688 C 343.34375 413.21875 259.179688 689.800781 280.519531 798.488281 C 286.683594 829.871094 292.839844 861.390625 313.398438 886.160156 C 378.015625 964.011719 612.789062 965.070312 710.027344 950.878906 C 868.917969 927.679688 891.617188 857.320312 879.671875 701.71875 C 871.488281 595.140625 763.789062 400.660156 570.796875 406.429688 "/>
<g clip-path="url(#clip-2)">
<g clip-path="url(#clip-3)">
<path fill-rule="evenodd" fill="rgb(87.693787%, 59.959412%, 34.788513%)" fill-opacity="1" d="M 498.109375 399.121094 C 497.242188 432.210938 485.265625 467.679688 482.921875 501.460938 C 481.421875 523.109375 480.820312 544.199219 483.179688 565.800781 C 485.21875 584.460938 488.378906 602.949219 493.75 620.960938 C 500.378906 643.179688 515.359375 647.269531 520.070312 624.710938 C 521.03125 620.109375 557.007812 300.351562 493.492188 404.839844 "/>
</g>
</g>
<g clip-path="url(#clip-4)">
<g clip-path="url(#clip-5)">
<path fill-rule="evenodd" fill="rgb(87.693787%, 59.959412%, 34.788513%)" fill-opacity="1" d="M 570.398438 384.441406 C 558.496094 390.300781 556.960938 552.359375 561.3125 572.558594 C 562.222656 576.789062 564.636719 589.351562 570.804688 589.800781 C 602.699219 592.171875 596.859375 346.671875 571.164062 388.71875 "/>
</g>
</g>
<g clip-path="url(#clip-6)">
<g clip-path="url(#clip-7)">
<path fill-rule="evenodd" fill="rgb(87.693787%, 59.959412%, 34.788513%)" fill-opacity="1" d="M 635.4375 392.320312 C 626.367188 399.058594 629.203125 435.609375 628.453125 446.46875 C 625.003906 496.648438 613.925781 574.851562 644.007812 619.328125 C 645.726562 621.871094 649.917969 627.601562 653.738281 625.628906 C 670.980469 616.738281 662.78125 422.519531 648.054688 396.488281 C 645.21875 391.488281 641.984375 389.378906 636.5 391.699219 "/>
</g>
</g>
<path fill-rule="evenodd" fill="rgb(21.99707%, 21.99707%, 21.99707%)" fill-opacity="1" d="M 460.34375 685.28125 C 481.441406 685.28125 498.570312 702.410156 498.570312 723.511719 C 498.570312 744.609375 481.441406 761.738281 460.34375 761.738281 C 439.242188 761.738281 422.113281 744.609375 422.113281 723.511719 C 422.113281 702.410156 439.242188 685.28125 460.34375 685.28125 "/>
<path fill-rule="evenodd" fill="rgb(91.40625%, 91.40625%, 91.40625%)" fill-opacity="1" d="M 467.511719 699.621094 C 476.742188 699.621094 484.234375 707.109375 484.234375 716.339844 C 484.234375 725.570312 476.742188 733.070312 467.511719 733.070312 C 458.277344 733.070312 450.785156 725.570312 450.785156 716.339844 C 450.785156 707.109375 458.277344 699.621094 467.511719 699.621094 "/>
<path fill-rule="evenodd" fill="rgb(21.99707%, 21.99707%, 21.99707%)" fill-opacity="1" d="M 698.082031 685.28125 C 719.179688 685.28125 736.3125 702.410156 736.3125 723.511719 C 736.3125 744.609375 719.179688 761.738281 698.082031 761.738281 C 676.980469 761.738281 659.851562 744.609375 659.851562 723.511719 C 659.851562 702.410156 676.980469 685.28125 698.082031 685.28125 "/>
<path fill-rule="evenodd" fill="rgb(91.40625%, 91.40625%, 91.40625%)" fill-opacity="1" d="M 705.25 699.621094 C 714.480469 699.621094 721.976562 707.109375 721.976562 716.339844 C 721.976562 725.570312 714.480469 733.070312 705.25 733.070312 C 696.019531 733.070312 688.523438 725.570312 688.523438 716.339844 C 688.523438 707.109375 696.019531 699.621094 705.25 699.621094 "/>
<path fill-rule="evenodd" fill="rgb(9.008789%, 9.008789%, 8.59375%)" fill-opacity="1" d="M 586.621094 851.101562 C 570.953125 851.171875 544.882812 825.121094 550.660156 804.898438 C 554.351562 791.988281 576.429688 789.21875 583.867188 789.21875 C 596.78125 789.21875 627.058594 790.878906 626.285156 808.671875 C 625.363281 829.878906 603.238281 851.019531 586.621094 851.101562 "/>
<path fill-rule="evenodd" fill="rgb(85.546875%, 85.15625%, 84.375%)" fill-opacity="1" d="M 558.152344 806.539062 C 558.609375 803.738281 565.640625 798.339844 568.976562 797.089844 C 580.855469 792.621094 600.226562 792.050781 611.730469 799.839844 C 615.585938 802.449219 618.695312 808.320312 613.425781 811.320312 C 610.828125 812.800781 607.304688 812.609375 604.449219 812.238281 C 597.847656 811.359375 590.960938 806.660156 584.277344 807.28125 C 578.359375 807.820312 574.074219 813.101562 568.277344 814.140625 C 565.300781 814.671875 556.984375 813.691406 558.152344 806.539062 "/>
<path fill-rule="evenodd" fill="rgb(21.99707%, 21.99707%, 21.99707%)" fill-opacity="1" d="M 459.914062 825.449219 C 474.246094 825.230469 466.179688 844.46875 479.683594 868.160156 C 491.675781 889.191406 518.324219 890.96875 545.660156 885.070312 C 563.523438 881.210938 588.203125 854.539062 588.203125 854.539062 C 590.847656 871.230469 667.019531 929.800781 704.398438 846.378906 C 707.238281 840.039062 710.1875 805.25 714.257812 822.171875 C 715.816406 828.648438 717.222656 836.101562 716.308594 842.691406 C 704.214844 929.851562 591.324219 902.289062 588.496094 873.660156 C 584.195312 904.789062 442.203125 924.320312 459.914062 825.449219 "/>
<path fill-rule="evenodd" fill="rgb(58.789062%, 39.208984%, 0%)" fill-opacity="1" d="M 490.355469 819.25 C 488.40625 815.421875 466.265625 817.03125 462.710938 817.039062 C 431.894531 817.191406 400.480469 820.289062 371.878906 831.761719 C 362.132812 835.671875 352.675781 840.148438 343.945312 845.890625 C 343.636719 846.089844 340.601562 847.800781 340.835938 848.289062 C 341.257812 849.179688 356.769531 841.710938 357.597656 841.320312 C 371.347656 834.859375 395.324219 828.238281 426.726562 824.851562 C 442.003906 823.199219 458.265625 825.410156 473.652344 827.398438 C 498.230469 830.578125 490.496094 822.839844 490.355469 819.25 "/>
<path fill-rule="evenodd" fill="rgb(58.789062%, 39.208984%, 0%)" fill-opacity="1" d="M 489.109375 839.679688 C 486.109375 835.421875 460.46875 841.671875 456.308594 842.378906 C 420.234375 848.539062 384.011719 858.421875 352.660156 877.871094 C 341.980469 884.5 331.742188 891.75 322.59375 900.410156 C 322.269531 900.710938 319.035156 903.371094 319.398438 903.921875 C 320.066406 904.921875 336.832031 892.839844 337.726562 892.210938 C 352.625 881.71875 379.464844 869.039062 415.617188 858.828125 C 433.203125 853.871094 452.675781 853.378906 471.070312 852.800781 C 500.464844 851.878906 489.949219 844 489.109375 839.679688 "/>
<path fill-rule="evenodd" fill="rgb(58.789062%, 39.208984%, 0%)" fill-opacity="1" d="M 496.0625 863.328125 C 493.0625 859.070312 467.421875 865.308594 463.261719 866.019531 C 427.1875 872.191406 390.96875 882.058594 359.617188 901.511719 C 348.9375 908.140625 338.699219 915.398438 329.546875 924.050781 C 329.222656 924.359375 325.988281 927.011719 326.355469 927.558594 C 327.019531 928.558594 343.789062 916.488281 344.683594 915.859375 C 359.578125 905.371094 386.421875 892.691406 422.574219 882.480469 C 440.160156 877.511719 459.628906 877.03125 478.027344 876.449219 C 507.417969 875.519531 496.902344 867.640625 496.0625 863.328125 "/>
<path fill-rule="evenodd" fill="rgb(58.789062%, 39.208984%, 0%)" fill-opacity="1" d="M 685.78125 820.140625 C 687.730469 816.308594 709.875 817.910156 713.429688 817.929688 C 744.242188 818.070312 775.660156 821.179688 804.261719 832.648438 C 814.003906 836.558594 823.460938 841.03125 832.195312 846.769531 C 832.503906 846.980469 835.539062 848.679688 835.304688 849.171875 C 834.878906 850.070312 819.367188 842.589844 818.539062 842.199219 C 804.789062 835.738281 780.816406 829.121094 749.410156 825.738281 C 734.136719 824.089844 717.871094 826.300781 702.488281 828.289062 C 677.910156 831.46875 685.640625 823.71875 685.78125 820.140625 "/>
<path fill-rule="evenodd" fill="rgb(58.789062%, 39.208984%, 0%)" fill-opacity="1" d="M 687.027344 840.570312 C 690.03125 836.300781 715.671875 842.550781 719.832031 843.261719 C 755.90625 849.429688 792.125 859.300781 823.476562 878.75 C 834.15625 885.378906 844.394531 892.640625 853.546875 901.289062 C 853.867188 901.601562 857.105469 904.25 856.738281 904.800781 C 856.070312 905.800781 839.304688 893.730469 838.410156 893.101562 C 823.515625 882.609375 796.671875 869.921875 760.519531 859.71875 C 742.933594 854.75 723.460938 854.269531 705.066406 853.691406 C 675.675781 852.761719 686.191406 844.878906 687.027344 840.570312 "/>
<path fill-rule="evenodd" fill="rgb(58.789062%, 39.208984%, 0%)" fill-opacity="1" d="M 680.074219 864.210938 C 683.074219 859.949219 708.714844 866.199219 712.878906 866.910156 C 748.949219 873.070312 785.171875 882.949219 816.523438 902.398438 C 827.203125 909.03125 837.441406 916.28125 846.589844 924.941406 C 846.914062 925.238281 850.148438 927.898438 849.78125 928.449219 C 849.117188 929.449219 832.351562 917.371094 831.457031 916.738281 C 816.558594 906.25 789.71875 893.570312 753.566406 883.359375 C 735.976562 878.398438 716.507812 877.910156 698.109375 877.328125 C 668.71875 876.410156 679.234375 868.53125 680.074219 864.210938 "/>
<path fill-rule="evenodd" fill="rgb(85.546875%, 83.006287%, 88.28125%)" fill-opacity="1" d="M 2302.140625 656.25 C 2303.550781 659.699219 2282.230469 659.898438 2281.058594 659.910156 C 2227.011719 660.359375 2166.648438 638.929688 2121.800781 610.070312 C 2034.789062 554.078125 2032.441406 450.519531 2107.828125 382.871094 C 2280.859375 227.609375 2444.429688 447.109375 2333.191406 618.640625 "/>
<path fill-rule="evenodd" fill="rgb(85.546875%, 83.006287%, 88.28125%)" fill-opacity="1" d="M 2470.21875 624.800781 C 2467.378906 627.21875 2460.558594 607.019531 2460.191406 605.910156 C 2442.949219 554.679688 2444.558594 490.640625 2458.039062 439.039062 C 2484.199219 338.941406 2581.898438 304.5 2669.640625 355.128906 C 2731.28125 390.691406 2759.261719 436.339844 2762.761719 481.050781 C 2766.289062 526.351562 2744.691406 570.699219 2707.46875 602.640625 C 2661.421875 642.171875 2591.460938 662.71875 2515.628906 642.621094 "/>
<path fill-rule="evenodd" fill="rgb(63.476562%, 59.179688%, 59.179688%)" fill-opacity="1" d="M 2493.910156 516.921875 C 2494.78125 516.871094 2493.5 508.769531 2493.460938 507.828125 C 2492.960938 496.699219 2493.988281 485.441406 2496.109375 474.511719 C 2502.878906 439.578125 2519.570312 418.160156 2549.890625 400.089844 C 2607.640625 365.691406 2688.921875 389.25 2709.800781 456.078125 C 2746.660156 574.03125 2540.339844 652.160156 2496.269531 525.480469 "/>
<path fill-rule="evenodd" fill="rgb(63.476562%, 59.179688%, 59.179688%)" fill-opacity="1" d="M 2330.078125 516.921875 C 2329.199219 516.871094 2330.488281 508.769531 2330.53125 507.828125 C 2331.019531 496.699219 2329.988281 485.441406 2327.871094 474.511719 C 2321.101562 439.578125 2304.421875 418.160156 2274.089844 400.089844 C 2216.351562 365.691406 2135.070312 389.25 2114.179688 456.078125 C 2077.320312 574.03125 2283.648438 652.160156 2327.710938 525.480469 "/>
<path fill-rule="evenodd" fill="rgb(75.389099%, 69.726562%, 72.264099%)" fill-opacity="1" d="M 2392.480469 437.5 C 2235.980469 463.589844 2098.308594 687.839844 2122.820312 780.53125 C 2142.25 854.039062 2223.269531 892.871094 2282.128906 931.140625 C 2325.789062 959.539062 2364.078125 999.480469 2420.898438 991.449219 C 2467.269531 984.910156 2651.121094 880.210938 2685.878906 848.328125 C 2707.75 828.269531 2726.460938 800.078125 2730.550781 770.128906 C 2741.941406 686.890625 2620.648438 519.980469 2552.070312 474.421875 C 2505.730469 443.640625 2447.828125 428.28125 2392.480469 437.5 "/>
<path fill-rule="evenodd" fill="rgb(82.421875%, 77.539062%, 81.639099%)" fill-opacity="1" d="M 2285.378906 543.699219 C 2298.671875 527.269531 2320.320312 483.429688 2404.398438 476.828125 C 2503.570312 469.039062 2579.121094 513.148438 2576.929688 584.148438 C 2575.558594 628.839844 2465.320312 592.46875 2435.441406 587.949219 C 2392.269531 581.421875 2292.320312 628.511719 2274.601562 585.949219 C 2268.671875 571.699219 2275.46875 555.929688 2285.378906 543.699219 "/>
<path fill-rule="evenodd" fill="rgb(15.306091%, 15.306091%, 15.306091%)" fill-opacity="1" d="M 2340.480469 690.769531 C 2365.539062 690.769531 2385.878906 711.109375 2385.878906 736.171875 C 2385.878906 761.21875 2365.539062 781.558594 2340.480469 781.558594 C 2315.429688 781.558594 2295.089844 761.21875 2295.089844 736.171875 C 2295.089844 711.109375 2315.429688 690.769531 2340.480469 690.769531 "/>
<path fill-rule="evenodd" fill="rgb(100%, 100%, 100%)" fill-opacity="1" d="M 2341.679688 703.910156 C 2352.890625 703.910156 2361.988281 713.011719 2361.988281 724.21875 C 2361.988281 735.429688 2352.890625 744.53125 2341.679688 744.53125 C 2330.46875 744.53125 2321.371094 735.429688 2321.371094 724.21875 C 2321.371094 713.011719 2330.46875 703.910156 2341.679688 703.910156 "/>
<path fill-rule="evenodd" fill="rgb(15.306091%, 15.306091%, 15.306091%)" fill-opacity="1" d="M 2493.398438 690.769531 C 2518.460938 690.769531 2538.800781 711.109375 2538.800781 736.171875 C 2538.800781 761.21875 2518.460938 781.558594 2493.398438 781.558594 C 2468.339844 781.558594 2448 761.21875 2448 736.171875 C 2448 711.109375 2468.339844 690.769531 2493.398438 690.769531 "/>
<path fill-rule="evenodd" fill="rgb(100%, 100%, 100%)" fill-opacity="1" d="M 2494.589844 703.910156 C 2505.800781 703.910156 2514.898438 713.011719 2514.898438 724.21875 C 2514.898438 735.429688 2505.800781 744.53125 2494.589844 744.53125 C 2483.390625 744.53125 2474.289062 735.429688 2474.289062 724.21875 C 2474.289062 713.011719 2483.390625 703.910156 2494.589844 703.910156 "/>
<path fill-rule="evenodd" fill="rgb(81.639099%, 86.326599%, 85.546875%)" fill-opacity="1" d="M 2306.671875 869.160156 C 2297.058594 863.570312 2274.179688 867.390625 2263.738281 867.808594 C 2220.710938 869.550781 2173.339844 875.589844 2136.179688 899.148438 C 2121.148438 908.679688 2105.53125 919.109375 2093.261719 932.171875 C 2091.261719 934.300781 2081.980469 943.261719 2086.691406 946.339844 C 2092.46875 950.101562 2109.339844 930.128906 2113.511719 926.988281 C 2138.539062 908.128906 2169.46875 890.371094 2200.5 884.648438 C 2227.03125 879.769531 2254.191406 877.898438 2281.101562 879.308594 C 2288.800781 879.710938 2309.691406 885.921875 2316.628906 881.199219 C 2320.300781 878.710938 2314.429688 872.460938 2312.699219 870.871094 "/>
<path fill-rule="evenodd" fill="rgb(81.639099%, 86.326599%, 85.546875%)" fill-opacity="1" d="M 2309 887.058594 C 2298.929688 882.351562 2276.480469 888.21875 2266.128906 889.578125 C 2223.429688 895.191406 2176.800781 905.480469 2141.910156 932.28125 C 2127.800781 943.128906 2113.191406 954.929688 2102.140625 969.039062 C 2100.339844 971.351562 2091.898438 981.101562 2096.878906 983.738281 C 2102.96875 986.96875 2117.96875 965.558594 2121.839844 962.050781 C 2145.070312 941.019531 2174.269531 920.539062 2204.660156 912.050781 C 2230.640625 904.800781 2257.519531 900.488281 2284.449219 899.46875 C 2292.160156 899.179688 2313.519531 903.480469 2320.011719 898.148438 C 2323.441406 895.339844 2317.03125 889.640625 2315.160156 888.21875 "/>
<path fill-rule="evenodd" fill="rgb(81.639099%, 86.326599%, 85.546875%)" fill-opacity="1" d="M 2307.921875 911.121094 C 2297.328125 907.738281 2275.808594 916.441406 2265.71875 919.109375 C 2224.089844 930.140625 2179.160156 946.320312 2148 977.371094 C 2135.390625 989.941406 2122.410156 1003.511719 2113.261719 1018.921875 C 2111.769531 1021.441406 2104.648438 1032.191406 2109.921875 1034.171875 C 2116.371094 1036.601562 2128.511719 1013.441406 2131.898438 1009.46875 C 2152.25 985.628906 2178.589844 961.578125 2207.640625 949.269531 C 2232.46875 938.75 2258.578125 931.03125 2285.160156 926.570312 C 2292.761719 925.289062 2314.5 926.820312 2320.261719 920.710938 C 2323.289062 917.480469 2316.210938 912.648438 2314.171875 911.480469 "/>
<path fill-rule="evenodd" fill="rgb(81.639099%, 86.326599%, 85.546875%)" fill-opacity="1" d="M 2516.921875 869.160156 C 2526.519531 863.570312 2549.410156 867.390625 2559.851562 867.808594 C 2602.878906 869.550781 2650.25 875.589844 2687.398438 899.148438 C 2702.441406 908.679688 2718.050781 919.109375 2730.320312 932.171875 C 2732.320312 934.300781 2741.609375 943.261719 2736.890625 946.339844 C 2731.121094 950.101562 2714.25 930.128906 2710.078125 926.988281 C 2685.050781 908.128906 2654.121094 890.371094 2623.089844 884.648438 C 2596.558594 879.769531 2569.398438 877.898438 2542.488281 879.308594 C 2534.78125 879.710938 2513.890625 885.921875 2506.949219 881.199219 C 2503.289062 878.710938 2509.160156 872.460938 2510.890625 870.871094 "/>
<path fill-rule="evenodd" fill="rgb(81.639099%, 86.326599%, 85.546875%)" fill-opacity="1" d="M 2514.578125 887.058594 C 2524.648438 882.351562 2547.101562 888.21875 2557.460938 889.578125 C 2600.160156 895.191406 2646.789062 905.480469 2681.671875 932.28125 C 2695.789062 943.128906 2710.398438 954.929688 2721.441406 969.039062 C 2723.238281 971.351562 2731.691406 981.101562 2726.710938 983.738281 C 2720.621094 986.96875 2705.621094 965.558594 2701.75 962.050781 C 2678.519531 941.019531 2649.308594 920.539062 2618.921875 912.050781 C 2592.949219 904.800781 2566.058594 900.488281 2539.128906 899.46875 C 2531.429688 899.179688 2510.058594 903.480469 2503.570312 898.148438 C 2500.148438 895.339844 2506.558594 889.640625 2508.429688 888.21875 "/>
<path fill-rule="evenodd" fill="rgb(81.639099%, 86.326599%, 85.546875%)" fill-opacity="1" d="M 2515.671875 911.121094 C 2526.261719 907.738281 2547.769531 916.441406 2557.871094 919.109375 C 2599.5 930.140625 2644.429688 946.320312 2675.589844 977.371094 C 2688.199219 989.941406 2701.179688 1003.511719 2710.320312 1018.921875 C 2711.808594 1021.441406 2718.941406 1032.191406 2713.660156 1034.171875 C 2707.210938 1036.601562 2695.078125 1013.441406 2691.691406 1009.46875 C 2671.339844 985.628906 2645 961.578125 2615.949219 949.269531 C 2591.121094 938.75 2565 931.03125 2538.429688 926.570312 C 2530.820312 925.289062 2509.078125 926.820312 2503.328125 920.710938 C 2500.289062 917.480469 2507.378906 912.648438 2509.410156 911.480469 "/>
<path fill-rule="evenodd" fill="rgb(81.639099%, 40.893555%, 40.989685%)" fill-opacity="1" d="M 2396.460938 877.789062 C 2407.339844 876.519531 2461.539062 875.03125 2459.351562 895.109375 C 2458.460938 903.230469 2453.171875 911.328125 2448.378906 917.660156 C 2428.179688 944.328125 2399.308594 939.519531 2375 920.941406 C 2375 920.941406 2340.238281 884.398438 2396.460938 877.789062 "/>
<path fill-rule="evenodd" fill="rgb(86.326599%, 82.421875%, 82.03125%)" fill-opacity="1" d="M 502.167969 1442.539062 C 500.179688 1446.519531 503.238281 1433.890625 503.496094 1429.550781 C 504.046875 1420.390625 504.8125 1411.238281 505.144531 1402.070312 C 506.078125 1376.289062 504.632812 1350.460938 501.230469 1324.851562 C 493.074219 1263.390625 443.894531 1112.910156 339.617188 1162.558594 C 274.3125 1193.660156 254.359375 1280.28125 240.546875 1338.75 C 235.878906 1358.519531 222.574219 1396.609375 248.710938 1409.929688 C 294.070312 1433.050781 362.664062 1359.949219 377.761719 1328.269531 C 384.519531 1314.101562 388.519531 1299.738281 391.320312 1284.609375 C 392.007812 1280.921875 391.75 1263.460938 396.210938 1261.089844 C 396.296875 1261.050781 396.40625 1261.019531 396.488281 1261.089844 C 398.96875 1263.28125 434.457031 1431.351562 436.246094 1442.179688 C 439.664062 1462.878906 442.167969 1483.679688 443.855469 1504.550781 C 444.558594 1513.238281 445.3125 1522.050781 444.730469 1530.761719 C 444.710938 1531.089844 443.972656 1537.671875 443.257812 1537.25 C 436.117188 1533.039062 472.960938 1524.53125 475.679688 1523.589844 C 500.109375 1515.160156 506.824219 1507.808594 507.367188 1483.800781 "/>
<g clip-path="url(#clip-8)">
<g clip-path="url(#clip-9)">
<path fill-rule="evenodd" fill="rgb(80.859375%, 67.771912%, 69.334412%)" fill-opacity="1" d="M 480.273438 1574.078125 C 478.988281 1573.128906 475.539062 1510.449219 475.078125 1505.070312 C 469.363281 1438.871094 461.359375 1372.511719 445.386719 1307.601562 C 443.140625 1298.480469 425.511719 1235.808594 407.199219 1238.550781 C 391.324219 1240.929688 389.878906 1288.878906 388.160156 1298.878906 C 375.96875 1369.828125 378.03125 1450.5 407.359375 1517.851562 C 415.328125 1536.148438 455.710938 1606.789062 478.617188 1561.851562 "/>
</g>
</g>
<path fill-rule="evenodd" fill="rgb(86.326599%, 82.421875%, 82.03125%)" fill-opacity="1" d="M 657.527344 1442.539062 C 659.515625 1446.519531 656.457031 1433.890625 656.199219 1429.550781 C 655.648438 1420.390625 654.882812 1411.238281 654.550781 1402.070312 C 653.617188 1376.289062 655.0625 1350.460938 658.464844 1324.851562 C 666.621094 1263.390625 715.800781 1112.910156 820.078125 1162.558594 C 885.386719 1193.660156 905.335938 1280.28125 919.148438 1338.75 C 923.816406 1358.519531 937.121094 1396.609375 910.984375 1409.929688 C 865.625 1433.050781 797.03125 1359.949219 781.933594 1328.269531 C 775.175781 1314.101562 771.175781 1299.738281 768.371094 1284.609375 C 767.6875 1280.921875 767.945312 1263.460938 763.484375 1261.089844 C 763.398438 1261.050781 763.289062 1261.019531 763.207031 1261.089844 C 760.726562 1263.28125 725.238281 1431.351562 723.449219 1442.179688 C 720.03125 1462.878906 717.527344 1483.679688 715.839844 1504.550781 C 715.136719 1513.238281 714.382812 1522.050781 714.964844 1530.761719 C 714.984375 1531.089844 715.726562 1537.671875 716.4375 1537.25 C 723.578125 1533.039062 686.734375 1524.53125 684.015625 1523.589844 C 659.589844 1515.160156 652.871094 1507.808594 652.328125 1483.800781 "/>
<g clip-path="url(#clip-10)">
<g clip-path="url(#clip-11)">
<path fill-rule="evenodd" fill="rgb(80.859375%, 67.771912%, 69.334412%)" fill-opacity="1" d="M 679.421875 1574.078125 C 680.703125 1573.128906 684.152344 1510.449219 684.617188 1505.070312 C 690.332031 1438.871094 698.335938 1372.511719 714.308594 1307.601562 C 716.554688 1298.480469 734.183594 1235.808594 752.492188 1238.550781 C 768.371094 1240.929688 769.816406 1288.878906 771.535156 1298.878906 C 783.730469 1369.828125 781.664062 1450.5 752.339844 1517.851562 C 744.367188 1536.148438 703.984375 1606.789062 681.078125 1561.851562 "/>
</g>
</g>
<path fill-rule="evenodd" fill="rgb(94.53125%, 90.234375%, 90.234375%)" fill-opacity="1" d="M 584.957031 1380.140625 C 463.21875 1398.96875 419.332031 1460.160156 363.359375 1549.808594 C 320.351562 1618.691406 267.734375 1672.339844 311.710938 1757.851562 C 360.640625 1852.988281 486.679688 1864.800781 587.675781 1868.230469 C 695.707031 1871.898438 811.347656 1849.511719 848.253906 1767.179688 C 894.847656 1663.238281 838.695312 1619.039062 807.636719 1553.328125 C 794.347656 1525.230469 714.289062 1360.148438 584.957031 1380.140625 "/>
<g clip-path="url(#clip-12)">
<g clip-path="url(#clip-13)">
<path fill-rule="evenodd" fill="rgb(100%, 100%, 100%)" fill-opacity="1" d="M 336.761719 1828.070312 C 333.746094 1827.78125 334.945312 1825.800781 336.136719 1823.359375 C 343.5 1808.289062 359.441406 1798.308594 373.324219 1790.019531 C 412 1766.941406 456.90625 1767.03125 497.089844 1749.121094 C 534.113281 1732.609375 542.957031 1603.160156 575.871094 1595.898438 C 615.320312 1587.191406 637.863281 1716.839844 664.769531 1735.578125 C 700.761719 1760.648438 747.496094 1758.671875 785.117188 1780.53125 C 802.4375 1790.601562 824.160156 1805.398438 825.210938 1827.519531 C 827.382812 1873.121094 770 1890.980469 735.1875 1898.910156 C 643.796875 1919.730469 536.125 1912.648438 445.46875 1890.511719 C 418.585938 1883.949219 342.226562 1863.769531 336.761719 1828.070312 "/>
</g>
</g>
<g clip-path="url(#clip-14)">
<g clip-path="url(#clip-15)">
<g clip-path="url(#clip-16)">
<path fill-rule="evenodd" fill="rgb(80.46875%, 57.226562%, 63.476562%)" fill-opacity="1" d="M 540.03125 1853.949219 C 538.503906 1847.839844 548.960938 1842.828125 561.535156 1836.03125 C 572.023438 1830.351562 579.957031 1817.859375 590.617188 1815.160156 C 601.378906 1812.429688 610.453125 1829.109375 617.683594 1834.828125 C 623.296875 1839.28125 641.328125 1846 643.964844 1852.75 C 645.464844 1856.589844 641.367188 1862.96875 640.382812 1865.890625 C 636.023438 1878.828125 615.933594 1880.058594 610.828125 1877.410156 C 601.226562 1872.429688 589.0625 1881.609375 578.214844 1881.328125 C 562.652344 1880.929688 544.808594 1873.058594 540.03125 1853.949219 "/>
</g>
</g>
</g>
<path fill-rule="evenodd" fill="rgb(80.46875%, 57.226562%, 63.476562%)" fill-opacity="1" d="M 583.925781 1821.539062 C 571.804688 1810.058594 545.449219 1793.960938 547.289062 1774.628906 C 549.277344 1753.761719 619.929688 1755.429688 632.929688 1765.96875 C 648.484375 1778.589844 603.621094 1821.898438 588.472656 1821.898438 "/>
<path fill-rule="evenodd" fill="rgb(100%, 96.484375%, 97.65625%)" fill-opacity="1" d="M 547.199219 1852.75 C 546.886719 1849.730469 555.460938 1845.570312 557.355469 1844.460938 C 563.082031 1841.128906 569.117188 1838.011719 574.527344 1834.191406 C 578.484375 1831.378906 585.234375 1822.269531 590.476562 1821.910156 C 592.792969 1821.75 596.3125 1826.550781 597.808594 1827.941406 C 603.679688 1833.390625 610.007812 1838.699219 616.851562 1842.878906 C 621.890625 1845.960938 627.378906 1848.460938 632.972656 1850.359375 C 633.378906 1850.488281 637.9375 1851.589844 637.867188 1852.160156 C 637.453125 1855.480469 635.023438 1859.269531 634.257812 1862.660156 C 631.175781 1876.359375 630 1891.128906 612.691406 1892.820312 C 608.027344 1893.28125 597.210938 1893.789062 592.597656 1889.789062 C 589.636719 1887.21875 592.65625 1844.359375 590.207031 1845.578125 C 587.527344 1846.921875 592.484375 1887.488281 587.816406 1889.789062 C 579.992188 1893.628906 561.632812 1893.210938 555.5625 1887.21875 C 548.722656 1880.480469 547.882812 1859.390625 547.199219 1852.75 "/>
<path fill-rule="evenodd" fill="rgb(19.993591%, 18.406677%, 15.696716%)" fill-opacity="1" d="M 507.175781 1629.351562 C 526.628906 1629.351562 542.417969 1645.140625 542.417969 1664.589844 C 542.417969 1684.039062 526.628906 1699.828125 507.175781 1699.828125 C 487.726562 1699.828125 471.933594 1684.039062 471.933594 1664.589844 C 471.933594 1645.140625 487.726562 1629.351562 507.175781 1629.351562 "/>
<path fill-rule="evenodd" fill="rgb(100%, 100%, 100%)" fill-opacity="1" d="M 507.175781 1641.300781 C 516.078125 1641.300781 523.304688 1648.519531 523.304688 1657.421875 C 523.304688 1666.320312 516.078125 1673.550781 507.175781 1673.550781 C 498.273438 1673.550781 491.050781 1666.320312 491.050781 1657.421875 C 491.050781 1648.519531 498.273438 1641.300781 507.175781 1641.300781 "/>
<path fill-rule="evenodd" fill="rgb(19.993591%, 18.406677%, 15.696716%)" fill-opacity="1" d="M 663.679688 1629.351562 C 683.128906 1629.351562 698.921875 1645.140625 698.921875 1664.589844 C 698.921875 1684.039062 683.128906 1699.828125 663.679688 1699.828125 C 644.226562 1699.828125 628.4375 1684.039062 628.4375 1664.589844 C 628.4375 1645.140625 644.226562 1629.351562 663.679688 1629.351562 "/>
<path fill-rule="evenodd" fill="rgb(100%, 100%, 100%)" fill-opacity="1" d="M 663.679688 1641.300781 C 672.578125 1641.300781 679.804688 1648.519531 679.804688 1657.421875 C 679.804688 1666.320312 672.578125 1673.550781 663.679688 1673.550781 C 654.777344 1673.550781 647.550781 1666.320312 647.550781 1657.421875 C 647.550781 1648.519531 654.777344 1641.300781 663.679688 1641.300781 "/>
<path fill-rule="evenodd" fill="rgb(34.49707%, 13.696289%, 0%)" fill-opacity="1" d="M 1469.601562 1373.21875 C 1464.5 1359.828125 1490.171875 1331.910156 1496.71875 1323.398438 C 1531.261719 1278.53125 1566.671875 1232.941406 1605.589844 1191.769531 C 1613.960938 1182.921875 1622.609375 1174.28125 1631.898438 1166.378906 C 1633.109375 1165.351562 1650.199219 1150.199219 1652.828125 1153.351562 C 1675.558594 1180.601562 1707.738281 1376.109375 1713.210938 1415.609375 C 1714.390625 1424.148438 1724.75 1502.871094 1712.988281 1504.449219 C 1702.28125 1505.898438 1490.328125 1385.089844 1469.601562 1373.21875 "/>
<path fill-rule="evenodd" fill="rgb(85.546875%, 36.888123%, 0%)" fill-opacity="1" d="M 1473.679688 1388.070312 C 1469.46875 1377.289062 1492.511719 1354.121094 1498.421875 1347.078125 C 1529.558594 1309.980469 1561.480469 1272.269531 1596.398438 1238.089844 C 1603.910156 1230.730469 1611.660156 1223.550781 1619.960938 1216.960938 C 1621.039062 1216.101562 1636.320312 1203.460938 1638.558594 1205.96875 C 1657.960938 1227.671875 1682.421875 1385.839844 1686.460938 1417.820312 C 1687.328125 1424.730469 1694.898438 1488.460938 1684.558594 1489.96875 C 1675.140625 1491.351562 1491.628906 1397.308594 1473.679688 1388.070312 "/>
<path fill-rule="evenodd" fill="rgb(34.49707%, 13.696289%, 0%)" fill-opacity="1" d="M 1488.410156 1375.078125 C 1493.648438 1361.738281 1468.269531 1333.558594 1461.808594 1324.980469 C 1427.730469 1279.761719 1392.789062 1233.808594 1354.300781 1192.25 C 1346.019531 1183.308594 1337.460938 1174.570312 1328.25 1166.578125 C 1327.050781 1165.539062 1310.109375 1150.210938 1307.449219 1153.339844 C 1284.449219 1180.359375 1250.261719 1375.519531 1244.378906 1414.96875 C 1243.109375 1423.5 1231.949219 1502.101562 1243.691406 1503.808594 C 1254.378906 1505.359375 1467.558594 1386.730469 1488.410156 1375.078125 "/>
<path fill-rule="evenodd" fill="rgb(85.546875%, 36.888123%, 0%)" fill-opacity="1" d="M 1484.179688 1389.878906 C 1488.511719 1379.148438 1465.699219 1355.738281 1459.871094 1348.648438 C 1429.101562 1311.230469 1397.570312 1273.191406 1363.011719 1238.648438 C 1355.578125 1231.21875 1347.898438 1223.960938 1339.671875 1217.28125 C 1338.601562 1216.410156 1323.449219 1203.621094 1321.179688 1206.101562 C 1301.558594 1227.601562 1275.46875 1385.511719 1271.109375 1417.449219 C 1270.160156 1424.351562 1261.941406 1488 1272.269531 1489.621094 C 1281.671875 1491.101562 1466.140625 1398.941406 1484.179688 1389.878906 "/>
<path fill-rule="evenodd" fill="rgb(100%, 58.006287%, 1.997375%)" fill-opacity="1" d="M 1711.691406 1446.769531 C 1623.238281 1314.789062 1551.550781 1304.160156 1471.558594 1308.191406 C 1366.5 1313.480469 1316.460938 1371.738281 1272.769531 1421.511719 C 1195.539062 1509.46875 1228.140625 1562.921875 1183.960938 1635.269531 C 1172.339844 1654.308594 1124.621094 1677.03125 1123.691406 1698.910156 C 1122.789062 1719.96875 1177.71875 1708.808594 1184.410156 1719.148438 C 1186.089844 1721.738281 1139.109375 1751.039062 1137.058594 1752.609375 C 1110.101562 1773.171875 1181.738281 1771.21875 1192.929688 1782.410156 C 1205.359375 1794.839844 1175.558594 1809.179688 1193.820312 1819.75 C 1253.148438 1854.101562 1312.058594 1836.429688 1373.300781 1851.269531 C 1421.101562 1862.859375 1445.28125 1892.011719 1496.648438 1893.578125 C 1538.929688 1894.871094 1575.488281 1862.828125 1611.339844 1851.769531 C 1671.351562 1833.25 1747.921875 1867.359375 1796.191406 1813.480469 C 1804.851562 1803.808594 1804.878906 1793.019531 1791.039062 1790.851562 C 1743.839844 1783.449219 1840.441406 1791.300781 1849.078125 1759.78125 C 1851.300781 1751.671875 1833.511719 1743.449219 1829.050781 1736.921875 C 1825.960938 1732.390625 1822.28125 1728.199219 1818.601562 1724.148438 C 1814.871094 1720.039062 1810.851562 1716.191406 1806.570312 1712.648438 C 1785.609375 1695.320312 1832.460938 1701.5 1839.519531 1692.878906 C 1841.621094 1690.308594 1838 1685.960938 1836.609375 1684.058594 C 1828.191406 1672.539062 1783.378906 1664.910156 1764.261719 1617.609375 C 1738.800781 1554.660156 1722.269531 1462.558594 1711.691406 1446.769531 "/>
<g clip-path="url(#clip-17)">
<g clip-path="url(#clip-18)">
<path fill-rule="evenodd" fill="rgb(91.014099%, 79.296875%, 66.209412%)" fill-opacity="1" d="M 1105.539062 1712.019531 C 1091.351562 1711.789062 1150.941406 1742.25 1160.269531 1744.28125 C 1208.039062 1754.648438 1256.460938 1757.328125 1302.769531 1736.398438 C 1418.460938 1684.140625 1398.679688 1774.488281 1485.660156 1780.121094 C 1516.5 1782.109375 1550.371094 1739.261719 1576.859375 1725.761719 C 1612.308594 1707.679688 1655.488281 1721.421875 1691.070312 1731.589844 C 1725.5 1741.429688 1759.320312 1752.070312 1794.808594 1750.378906 C 1817.429688 1749.300781 1840.210938 1738.109375 1862.808594 1741.21875 C 1868 1741.929688 1875.851562 1744.480469 1876.289062 1753.058594 C 1878.839844 1803.75 1736.25 1899.148438 1708.941406 1911.511719 C 1550.691406 1983.121094 1119.539062 1916.058594 1105.539062 1712.019531 "/>
</g>
</g>
<path fill-rule="evenodd" fill="rgb(19.993591%, 18.406677%, 15.696716%)" fill-opacity="1" d="M 1395.460938 1587.78125 C 1414.921875 1587.78125 1430.710938 1603.570312 1430.710938 1623.019531 C 1430.710938 1642.46875 1414.921875 1658.261719 1395.460938 1658.261719 C 1376.011719 1658.261719 1360.21875 1642.46875 1360.21875 1623.019531 C 1360.21875 1603.570312 1376.011719 1587.78125 1395.460938 1587.78125 "/>
<path fill-rule="evenodd" fill="rgb(100%, 100%, 100%)" fill-opacity="1" d="M 1395.460938 1599.71875 C 1404.371094 1599.71875 1411.589844 1606.949219 1411.589844 1615.851562 C 1411.589844 1624.75 1404.371094 1631.980469 1395.460938 1631.980469 C 1386.558594 1631.980469 1379.339844 1624.75 1379.339844 1615.851562 C 1379.339844 1606.949219 1386.558594 1599.71875 1395.460938 1599.71875 "/>
<path fill-rule="evenodd" fill="rgb(19.993591%, 18.406677%, 15.696716%)" fill-opacity="1" d="M 1551.96875 1587.78125 C 1571.421875 1587.78125 1587.210938 1603.570312 1587.210938 1623.019531 C 1587.210938 1642.46875 1571.421875 1658.261719 1551.96875 1658.261719 C 1532.519531 1658.261719 1516.71875 1642.46875 1516.71875 1623.019531 C 1516.71875 1603.570312 1532.519531 1587.78125 1551.96875 1587.78125 "/>
<path fill-rule="evenodd" fill="rgb(100%, 100%, 100%)" fill-opacity="1" d="M 1551.96875 1599.71875 C 1560.871094 1599.71875 1568.089844 1606.949219 1568.089844 1615.851562 C 1568.089844 1624.75 1560.871094 1631.980469 1551.96875 1631.980469 C 1543.058594 1631.980469 1535.839844 1624.75 1535.839844 1615.851562 C 1535.839844 1606.949219 1543.058594 1599.71875 1551.96875 1599.71875 "/>
<path fill-rule="evenodd" fill="rgb(24.291992%, 23.509216%, 20.410156%)" fill-opacity="1" d="M 1416.941406 1754.601562 C 1406.558594 1727.558594 1541.191406 1719.46875 1545.878906 1754.25 C 1547.609375 1767.128906 1533.488281 1780.289062 1525.929688 1789.660156 C 1518.921875 1798.339844 1497.328125 1816.011719 1485.039062 1817.511719 C 1468.46875 1819.53125 1428.140625 1783.761719 1416.941406 1754.601562 "/>
<path fill-rule="evenodd" fill="rgb(91.40625%, 91.796875%, 93.359375%)" fill-opacity="1" d="M 1450.390625 1748.21875 C 1465.921875 1736.269531 1485.289062 1739.628906 1501.761719 1742.25 C 1506.949219 1743.070312 1521.980469 1749.28125 1518.378906 1757.171875 C 1516.371094 1761.578125 1510.828125 1762.339844 1506.550781 1762.21875 C 1496.289062 1761.941406 1484.839844 1750.859375 1475.480469 1755.390625 C 1438.449219 1773.308594 1437.238281 1758.339844 1450.390625 1748.21875 "/>
<path fill-rule="evenodd" fill="rgb(87.5%, 84.764099%, 84.375%)" fill-opacity="1" d="M 2209.808594 1213.449219 C 2290.050781 1213.449219 2355.191406 1279.03125 2355.191406 1359.789062 C 2355.191406 1440.558594 2290.050781 1506.128906 2209.808594 1506.128906 C 2129.578125 1506.128906 2064.441406 1440.558594 2064.441406 1359.789062 C 2064.441406 1279.03125 2129.578125 1213.449219 2209.808594 1213.449219 "/>
<g clip-path="url(#clip-19)">
<g clip-path="url(#clip-20)">
<path fill-rule="evenodd" fill="rgb(89.451599%, 60.742188%, 64.646912%)" fill-opacity="1" d="M 2166.019531 1227.121094 C 2234.140625 1227.121094 2289.429688 1279.089844 2289.429688 1343.101562 C 2289.429688 1407.109375 2234.140625 1459.078125 2166.019531 1459.078125 C 2097.910156 1459.078125 2042.609375 1407.109375 2042.609375 1343.101562 C 2042.609375 1279.089844 2097.910156 1227.121094 2166.019531 1227.121094 "/>
</g>
</g>
<path fill-rule="evenodd" fill="rgb(87.5%, 84.764099%, 84.375%)" fill-opacity="1" d="M 2598.421875 1213.449219 C 2518.191406 1213.449219 2453.039062 1279.03125 2453.039062 1359.789062 C 2453.039062 1440.558594 2518.191406 1506.128906 2598.421875 1506.128906 C 2678.648438 1506.128906 2743.789062 1440.558594 2743.789062 1359.789062 C 2743.789062 1279.03125 2678.648438 1213.449219 2598.421875 1213.449219 "/>
<g clip-path="url(#clip-21)">
<g clip-path="url(#clip-22)">
<path fill-rule="evenodd" fill="rgb(89.451599%, 60.742188%, 64.646912%)" fill-opacity="1" d="M 2625.171875 1227.121094 C 2559.699219 1227.121094 2506.550781 1277.929688 2506.550781 1340.519531 C 2506.550781 1403.109375 2559.699219 1453.921875 2625.171875 1453.921875 C 2690.640625 1453.921875 2743.789062 1403.109375 2743.789062 1340.519531 C 2743.789062 1277.929688 2690.640625 1227.121094 2625.171875 1227.121094 "/>
</g>
</g>
<path fill-rule="evenodd" fill="rgb(89.0625%, 90.039062%, 89.84375%)" fill-opacity="1" d="M 2415.488281 1290.78125 C 2221.960938 1309.890625 2248.75 1427.28125 2182.53125 1478.339844 C 2120.871094 1525.890625 2081.890625 1575.53125 2077.398438 1619.308594 C 2072.621094 1665.898438 2080.988281 1683.820312 2112.300781 1733.960938 C 2160.46875 1811.089844 2241.480469 1801.101562 2319.410156 1812 C 2345.828125 1815.691406 2370.390625 1826.808594 2397.449219 1827.039062 C 2437.21875 1827.378906 2473.46875 1819.621094 2512.328125 1813.03125 C 2580.308594 1801.488281 2637.171875 1805.019531 2691.460938 1750.71875 C 2720.128906 1722.050781 2749.960938 1704.441406 2738.058594 1618.121094 C 2728.5 1548.820312 2672.289062 1515.371094 2622.121094 1474.761719 C 2569.589844 1432.230469 2593.5 1305.109375 2415.488281 1290.78125 "/>
<g clip-path="url(#clip-23)">
<g clip-path="url(#clip-24)">
<path fill-rule="evenodd" fill="rgb(100%, 100%, 100%)" fill-opacity="1" d="M 2218.789062 1510.601562 C 2172.429688 1533.570312 2132.699219 1520.039062 2118.628906 1570.328125 C 2051.210938 1811.230469 2614.230469 1908.421875 2693.078125 1647.820312 C 2715.660156 1573.199219 2668.75 1457.699219 2598.289062 1394.710938 C 2489.539062 1297.511719 2280.449219 1352.480469 2218.789062 1510.601562 "/>
</g>
</g>
<g clip-path="url(#clip-25)">
<g clip-path="url(#clip-26)">
<path fill-rule="evenodd" fill="rgb(97.264099%, 60.351562%, 27.098083%)" fill-opacity="1" d="M 2192.039062 1638.421875 C 2315.089844 1683.820312 2359.101562 1553.410156 2416.980469 1487.820312 C 2458.410156 1440.851562 2534.628906 1436.101562 2583.699219 1398.898438 C 2606.839844 1381.359375 2598.25 1356.089844 2586.640625 1333.941406 C 2565.980469 1294.539062 2526.429688 1265.449219 2485.449219 1250.160156 C 2350.738281 1199.941406 1956.691406 1528.519531 2192.039062 1638.421875 "/>
</g>
</g>
<path fill-rule="evenodd" fill="rgb(19.993591%, 18.406677%, 15.696716%)" fill-opacity="1" d="M 2327.511719 1535.679688 C 2346.960938 1535.679688 2362.75 1551.46875 2362.75 1570.929688 C 2362.75 1590.378906 2346.960938 1606.171875 2327.511719 1606.171875 C 2308.058594 1606.171875 2292.269531 1590.378906 2292.269531 1570.929688 C 2292.269531 1551.46875 2308.058594 1535.679688 2327.511719 1535.679688 "/>
<path fill-rule="evenodd" fill="rgb(100%, 100%, 100%)" fill-opacity="1" d="M 2327.511719 1547.628906 C 2336.410156 1547.628906 2343.640625 1554.859375 2343.640625 1563.761719 C 2343.640625 1572.660156 2336.410156 1579.890625 2327.511719 1579.890625 C 2318.609375 1579.890625 2311.378906 1572.660156 2311.378906 1563.761719 C 2311.378906 1554.859375 2318.609375 1547.628906 2327.511719 1547.628906 "/>
<path fill-rule="evenodd" fill="rgb(19.993591%, 18.406677%, 15.696716%)" fill-opacity="1" d="M 2484.011719 1535.679688 C 2503.460938 1535.679688 2519.25 1551.46875 2519.25 1570.929688 C 2519.25 1590.378906 2503.460938 1606.171875 2484.011719 1606.171875 C 2464.558594 1606.171875 2448.769531 1590.378906 2448.769531 1570.929688 C 2448.769531 1551.46875 2464.558594 1535.679688 2484.011719 1535.679688 "/>
<path fill-rule="evenodd" fill="rgb(100%, 100%, 100%)" fill-opacity="1" d="M 2484.011719 1547.628906 C 2492.910156 1547.628906 2500.140625 1554.859375 2500.140625 1563.761719 C 2500.140625 1572.660156 2492.910156 1579.890625 2484.011719 1579.890625 C 2475.109375 1579.890625 2467.878906 1572.660156 2467.878906 1563.761719 C 2467.878906 1554.859375 2475.109375 1547.628906 2484.011719 1547.628906 "/>
<path fill-rule="evenodd" fill="rgb(81.639099%, 86.326599%, 85.546875%)" fill-opacity="1" d="M 2302.109375 1688.550781 C 2292.5 1682.960938 2269.609375 1686.78125 2259.179688 1687.199219 C 2216.140625 1688.929688 2168.78125 1694.980469 2131.621094 1718.53125 C 2116.589844 1728.058594 2100.96875 1738.5 2088.699219 1751.558594 C 2086.699219 1753.691406 2077.410156 1762.640625 2082.128906 1765.71875 C 2087.898438 1769.488281 2104.78125 1749.511719 2108.949219 1746.371094 C 2133.980469 1727.519531 2164.910156 1709.761719 2195.941406 1704.039062 C 2222.460938 1699.148438 2249.621094 1697.289062 2276.539062 1698.699219 C 2284.238281 1699.101562 2305.128906 1705.308594 2312.070312 1700.589844 C 2315.738281 1698.089844 2309.859375 1691.839844 2308.128906 1690.261719 "/>
<path fill-rule="evenodd" fill="rgb(81.639099%, 86.326599%, 85.546875%)" fill-opacity="1" d="M 2304.441406 1706.441406 C 2294.371094 1701.738281 2271.921875 1707.609375 2261.558594 1708.96875 C 2218.859375 1714.570312 2172.230469 1724.859375 2137.351562 1751.671875 C 2123.238281 1762.511719 2108.621094 1774.308594 2097.578125 1788.429688 C 2095.78125 1790.730469 2087.339844 1800.488281 2092.308594 1803.128906 C 2098.398438 1806.359375 2113.410156 1784.941406 2117.28125 1781.441406 C 2140.511719 1760.410156 2169.710938 1739.929688 2200.101562 1731.441406 C 2226.078125 1724.179688 2252.960938 1719.878906 2279.890625 1718.851562 C 2287.589844 1718.558594 2308.960938 1722.859375 2315.449219 1717.539062 C 2318.878906 1714.71875 2312.460938 1709.03125 2310.601562 1707.609375 "/>
<path fill-rule="evenodd" fill="rgb(81.639099%, 86.326599%, 85.546875%)" fill-opacity="1" d="M 2303.351562 1730.5 C 2292.761719 1727.128906 2271.25 1735.820312 2261.148438 1738.5 C 2219.519531 1749.53125 2174.601562 1765.710938 2143.429688 1796.761719 C 2130.820312 1809.320312 2117.839844 1822.898438 2108.699219 1838.308594 C 2107.210938 1840.820312 2100.089844 1851.578125 2105.359375 1853.558594 C 2111.808594 1855.980469 2123.949219 1832.820312 2127.339844 1828.851562 C 2147.679688 1805.019531 2174.019531 1780.96875 2203.070312 1768.660156 C 2227.910156 1758.128906 2254.019531 1750.421875 2280.601562 1745.960938 C 2288.199219 1744.679688 2309.941406 1746.210938 2315.691406 1740.089844 C 2318.730469 1736.859375 2311.640625 1732.039062 2309.609375 1730.871094 "/>
<path fill-rule="evenodd" fill="rgb(81.639099%, 86.326599%, 85.546875%)" fill-opacity="1" d="M 2512.351562 1688.550781 C 2521.960938 1682.960938 2544.851562 1686.78125 2555.28125 1687.199219 C 2598.308594 1688.929688 2645.679688 1694.980469 2682.839844 1718.53125 C 2697.871094 1728.058594 2713.488281 1738.5 2725.761719 1751.558594 C 2727.761719 1753.691406 2737.050781 1762.640625 2732.328125 1765.71875 C 2726.558594 1769.488281 2709.679688 1749.511719 2705.511719 1746.371094 C 2680.480469 1727.519531 2649.550781 1709.761719 2618.519531 1704.039062 C 2592 1699.148438 2564.839844 1697.289062 2537.921875 1698.699219 C 2530.21875 1699.101562 2509.328125 1705.308594 2502.390625 1700.589844 C 2498.71875 1698.089844 2504.601562 1691.839844 2506.328125 1690.261719 "/>
<path fill-rule="evenodd" fill="rgb(81.639099%, 86.326599%, 85.546875%)" fill-opacity="1" d="M 2510.019531 1706.441406 C 2520.089844 1701.738281 2542.539062 1707.609375 2552.898438 1708.96875 C 2595.601562 1714.570312 2642.230469 1724.859375 2677.109375 1751.671875 C 2691.21875 1762.511719 2705.839844 1774.308594 2716.878906 1788.429688 C 2718.679688 1790.730469 2727.121094 1800.488281 2722.148438 1803.128906 C 2716.058594 1806.359375 2701.050781 1784.941406 2697.179688 1781.441406 C 2673.949219 1760.410156 2644.75 1739.929688 2614.359375 1731.441406 C 2588.378906 1724.179688 2561.5 1719.878906 2534.570312 1718.851562 C 2526.859375 1718.558594 2505.5 1722.859375 2499.011719 1717.539062 C 2495.578125 1714.71875 2502 1709.03125 2503.859375 1707.609375 "/>
<path fill-rule="evenodd" fill="rgb(81.639099%, 86.326599%, 85.546875%)" fill-opacity="1" d="M 2511.109375 1730.5 C 2521.699219 1727.128906 2543.210938 1735.820312 2553.308594 1738.5 C 2594.941406 1749.53125 2639.859375 1765.710938 2671.03125 1796.761719 C 2683.640625 1809.320312 2696.609375 1822.898438 2705.761719 1838.308594 C 2707.25 1840.820312 2714.371094 1851.578125 2709.101562 1853.558594 C 2702.648438 1855.980469 2690.511719 1832.820312 2687.121094 1828.851562 C 2666.78125 1805.019531 2640.441406 1780.96875 2611.390625 1768.660156 C 2586.550781 1758.128906 2560.441406 1750.421875 2533.859375 1745.960938 C 2526.261719 1744.679688 2504.519531 1746.210938 2498.769531 1740.089844 C 2495.730469 1736.859375 2502.820312 1732.039062 2504.851562 1730.871094 "/>
<path fill-rule="evenodd" fill="rgb(81.639099%, 40.893555%, 40.989685%)" fill-opacity="1" d="M 2391.898438 1697.179688 C 2402.78125 1695.898438 2456.980469 1694.421875 2454.789062 1714.488281 C 2453.898438 1722.609375 2448.609375 1730.71875 2443.808594 1737.050781 C 2423.609375 1763.710938 2394.75 1758.910156 2370.441406 1740.328125 C 2370.441406 1740.328125 2335.679688 1703.789062 2391.898438 1697.179688 "/>
<path fill-rule="evenodd" fill="rgb(23.094177%, 23.509216%, 23.509216%)" fill-opacity="1" d="M 1293.390625 2088.660156 C 1366.601562 2088.660156 1426.03125 2148.09375 1426.03125 2221.296875 C 1426.03125 2294.503906 1366.601562 2353.933594 1293.390625 2353.933594 C 1220.191406 2353.933594 1160.761719 2294.503906 1160.761719 2221.296875 C 1160.761719 2148.09375 1220.191406 2088.660156 1293.390625 2088.660156 "/>
<path fill-rule="evenodd" fill="rgb(50.976562%, 51.367188%, 50.584412%)" fill-opacity="1" d="M 1293.960938 2125.753906 C 1351 2125.753906 1397.300781 2170.183594 1397.300781 2224.910156 C 1397.300781 2279.636719 1351 2324.066406 1293.960938 2324.066406 C 1236.929688 2324.066406 1190.621094 2279.636719 1190.621094 2224.910156 C 1190.621094 2170.183594 1236.929688 2125.753906 1293.960938 2125.753906 "/>
<path fill-rule="evenodd" fill="rgb(23.094177%, 23.509216%, 23.509216%)" fill-opacity="1" d="M 1650.601562 2088.660156 C 1723.808594 2088.660156 1783.238281 2148.09375 1783.238281 2221.296875 C 1783.238281 2294.503906 1723.808594 2353.933594 1650.601562 2353.933594 C 1577.398438 2353.933594 1517.960938 2294.503906 1517.960938 2221.296875 C 1517.960938 2148.09375 1577.398438 2088.660156 1650.601562 2088.660156 "/>
<path fill-rule="evenodd" fill="rgb(50.976562%, 51.367188%, 50.584412%)" fill-opacity="1" d="M 1651.171875 2125.753906 C 1708.199219 2125.753906 1754.511719 2170.183594 1754.511719 2224.910156 C 1754.511719 2279.636719 1708.199219 2324.066406 1651.171875 2324.066406 C 1594.140625 2324.066406 1547.828125 2279.636719 1547.828125 2224.910156 C 1547.828125 2170.183594 1594.140625 2125.753906 1651.171875 2125.753906 "/>
<path fill-rule="evenodd" fill="rgb(86.131287%, 86.71875%, 87.109375%)" fill-opacity="1" d="M 1459.691406 2140.089844 C 1426.210938 2139.902344 1375.410156 2156.324219 1346.058594 2170.425781 C 1292.089844 2196.355469 1255.320312 2232.863281 1220.710938 2282.835938 C 1125.03125 2420.972656 1135.339844 2647.457031 1314.03125 2704.199219 C 1425.210938 2739.503906 1594.609375 2742.261719 1703.320312 2678.480469 C 1920.640625 2550.976562 1798.949219 2141.996094 1459.691406 2140.089844 "/>
<g clip-path="url(#clip-27)">
<g clip-path="url(#clip-28)">
<path fill-rule="evenodd" fill="rgb(100%, 100%, 100%)" fill-opacity="1" d="M 1408.488281 2170.1875 C 1393.890625 2167.453125 1364.28125 2187.066406 1351.75 2192.816406 C 1234.199219 2246.746094 1169.148438 2375.425781 1179.121094 2503.398438 C 1182.609375 2548.171875 1197.710938 2594.527344 1231.988281 2624.996094 C 1325.570312 2708.179688 1570.878906 2712.671875 1676.851562 2656.230469 C 1718.480469 2634.058594 1746.398438 2592.582031 1761.070312 2548.765625 C 1829.921875 2343.234375 1625.511719 2119.054688 1411.71875 2166.5625 "/>
</g>
</g>
<path fill-rule="evenodd" fill="rgb(0%, 0%, 0%)" fill-opacity="1" d="M 1397.761719 2375.636719 C 1315.089844 2365.152344 1214.921875 2509.179688 1322.78125 2576.921875 C 1375.238281 2609.871094 1435.230469 2575.183594 1449.640625 2518.957031 C 1458.570312 2484.121094 1452.261719 2382.550781 1397.761719 2375.636719 "/>
<path fill-rule="evenodd" fill="rgb(0%, 0%, 0%)" fill-opacity="1" d="M 1551.261719 2375.636719 C 1622.648438 2361.34375 1734.101562 2509.179688 1626.238281 2576.921875 C 1573.78125 2609.871094 1513.78125 2575.183594 1499.378906 2518.957031 C 1490.449219 2484.121094 1498.851562 2386.132812 1551.261719 2375.636719 "/>
<path fill-rule="evenodd" fill="rgb(0%, 0%, 0%)" fill-opacity="1" d="M 1432.210938 2637.003906 C 1429.070312 2624.320312 1409.789062 2614.152344 1418.539062 2598.164062 C 1428.710938 2579.578125 1528.019531 2577.386719 1533.398438 2600.035156 C 1536.980469 2615.125 1507.210938 2669.328125 1476.148438 2666.9375 C 1454.578125 2665.277344 1444.871094 2643.976562 1432.210938 2637.003906 "/>
<path fill-rule="evenodd" fill="rgb(21.604919%, 21.604919%, 21.604919%)" fill-opacity="1" d="M 1364.949219 2449.507812 C 1385.390625 2449.507812 1401.980469 2466.101562 1401.980469 2486.542969 C 1401.980469 2506.984375 1385.390625 2523.578125 1364.949219 2523.578125 C 1344.511719 2523.578125 1327.910156 2506.984375 1327.910156 2486.542969 C 1327.910156 2466.101562 1344.511719 2449.507812 1364.949219 2449.507812 "/>
<path fill-rule="evenodd" fill="rgb(91.40625%, 92.1875%, 93.75%)" fill-opacity="1" d="M 1365.550781 2466.234375 C 1373.128906 2466.234375 1379.28125 2472.390625 1379.28125 2479.972656 C 1379.28125 2487.554688 1373.128906 2493.710938 1365.550781 2493.710938 C 1357.960938 2493.710938 1351.808594 2487.554688 1351.808594 2479.972656 C 1351.808594 2472.390625 1357.960938 2466.234375 1365.550781 2466.234375 "/>
<path fill-rule="evenodd" fill="rgb(21.604919%, 21.604919%, 21.604919%)" fill-opacity="1" d="M 1570.429688 2449.507812 C 1590.871094 2449.507812 1607.46875 2466.101562 1607.46875 2486.542969 C 1607.46875 2506.984375 1590.871094 2523.578125 1570.429688 2523.578125 C 1549.988281 2523.578125 1533.398438 2506.984375 1533.398438 2486.542969 C 1533.398438 2466.101562 1549.988281 2449.507812 1570.429688 2449.507812 "/>
<path fill-rule="evenodd" fill="rgb(91.40625%, 92.1875%, 93.75%)" fill-opacity="1" d="M 1571.03125 2466.234375 C 1578.609375 2466.234375 1584.769531 2472.390625 1584.769531 2479.972656 C 1584.769531 2487.554688 1578.609375 2493.710938 1571.03125 2493.710938 C 1563.449219 2493.710938 1557.289062 2487.554688 1557.289062 2479.972656 C 1557.289062 2472.390625 1563.449219 2466.234375 1571.03125 2466.234375 "/>
<path fill-rule="evenodd" fill="rgb(91.40625%, 92.1875%, 93.75%)" fill-opacity="1" d="M 1474.960938 2610.789062 C 1458.679688 2611.949219 1454.320312 2618.792969 1444.859375 2617.027344 C 1426.921875 2613.6875 1423.460938 2603.710938 1445.089844 2596.453125 C 1449.960938 2594.816406 1492.53125 2590.675781 1503.628906 2595.257812 C 1534.058594 2607.820312 1514.789062 2619.765625 1503.628906 2616.761719 C 1495.941406 2614.695312 1491.679688 2609.59375 1474.960938 2610.789062 "/>
<path fill-rule="evenodd" fill="rgb(60.351562%, 41.209412%, 25.097656%)" fill-opacity="1" d="M 2446.660156 2214.101562 C 2446.660156 2214.101562 2494.738281 2067.117188 2650.949219 2140.03125 C 2650.949219 2140.03125 2788.660156 2228.378906 2630.640625 2371.796875 L 2446.660156 2214.101562 "/>
<path fill-rule="evenodd" fill="rgb(94.921875%, 48.193359%, 38.890076%)" fill-opacity="1" d="M 2462.191406 2223.503906 C 2462.191406 2223.503906 2499.851562 2108.375 2622.199219 2165.488281 C 2622.199219 2165.488281 2730.058594 2234.683594 2606.289062 2347.019531 L 2462.191406 2223.503906 "/>
<path fill-rule="evenodd" fill="rgb(60.351562%, 41.209412%, 25.097656%)" fill-opacity="1" d="M 2344.558594 2214.101562 C 2344.558594 2214.101562 2296.480469 2067.117188 2140.28125 2140.03125 C 2140.28125 2140.03125 2002.558594 2228.378906 2160.589844 2371.796875 L 2344.558594 2214.101562 "/>
<path fill-rule="evenodd" fill="rgb(94.921875%, 48.193359%, 38.890076%)" fill-opacity="1" d="M 2329.03125 2223.503906 C 2329.03125 2223.503906 2291.371094 2108.375 2169.03125 2165.488281 C 2169.03125 2165.488281 2061.160156 2234.683594 2184.929688 2347.019531 L 2329.03125 2223.503906 "/>
<path fill-rule="evenodd" fill="rgb(64.256287%, 44.309998%, 29.80957%)" fill-opacity="1" d="M 2599.570312 2269.058594 C 2574.921875 2203.488281 2478.820312 2156.933594 2395.289062 2156.757812 C 2308.398438 2156.574219 2234.101562 2204.882812 2214.890625 2245.164062 C 2182.648438 2312.785156 2178.488281 2314.851562 2154.320312 2370.996094 C 2143.941406 2395.109375 2123.191406 2415.007812 2109.941406 2437.679688 C 2071.800781 2502.953125 2075.160156 2585.40625 2131.511719 2640.484375 C 2156.308594 2664.722656 2189.539062 2678.253906 2223.03125 2685.414062 C 2280.179688 2697.640625 2339.21875 2692.558594 2397.191406 2693.097656 C 2474.519531 2693.8125 2542.691406 2702 2618.308594 2679.605469 C 2711.011719 2652.15625 2752.558594 2545.871094 2722.628906 2463.789062 C 2709.539062 2427.910156 2673.449219 2399.828125 2653.328125 2370.605469 C 2637.761719 2347.972656 2609.53125 2295.519531 2599.570312 2269.058594 "/>
<path fill-rule="evenodd" fill="rgb(89.451599%, 75.389099%, 54.492188%)" fill-opacity="1" d="M 2303.460938 2701.90625 C 2296.480469 2698.226562 2288.898438 2687.496094 2284.769531 2681.195312 C 2246.980469 2623.621094 2302.328125 2596.460938 2341.289062 2566.539062 C 2357.671875 2553.96875 2374.980469 2506.808594 2422.128906 2523.519531 C 2442.070312 2530.585938 2451.519531 2557.058594 2469.328125 2567.734375 C 2523.121094 2599.992188 2533.03125 2615.371094 2536.058594 2648.703125 C 2538.101562 2671.109375 2514.710938 2693.152344 2498.03125 2703.929688 C 2431.75 2746.746094 2359.769531 2726.972656 2303.460938 2701.90625 "/>
<path fill-rule="evenodd" fill="rgb(8.59375%, 9.008789%, 8.59375%)" fill-opacity="1" d="M 2453.378906 2643.640625 C 2408.671875 2696.113281 2358.078125 2645.378906 2352.660156 2634.792969 C 2352.660156 2634.792969 2332.738281 2606.21875 2345.640625 2595.484375 C 2367.359375 2577.421875 2409.898438 2579.859375 2435.769531 2583.242188 C 2446.820312 2584.6875 2460.5 2588.371094 2466.789062 2598.546875 C 2474.929688 2611.703125 2461.601562 2633.992188 2453.378906 2643.640625 "/>
<path fill-rule="evenodd" fill="rgb(91.40625%, 92.1875%, 93.75%)" fill-opacity="1" d="M 2352.699219 2609.574219 C 2352.269531 2604.871094 2357.988281 2592.738281 2388.539062 2591.65625 C 2396.199219 2591.382812 2415.488281 2591.894531 2423.160156 2591.617188 C 2438.300781 2591.070312 2451.621094 2590.480469 2457.808594 2609.535156 C 2459.230469 2613.910156 2450.648438 2623.554688 2410.019531 2610.730469 C 2393.308594 2605.457031 2355.089844 2635.859375 2352.699219 2609.574219 "/>
<path fill-rule="evenodd" fill="rgb(21.604919%, 21.604919%, 21.604919%)" fill-opacity="1" d="M 2293.738281 2447.0625 C 2314.179688 2447.0625 2330.769531 2463.65625 2330.769531 2484.097656 C 2330.769531 2504.535156 2314.179688 2521.132812 2293.738281 2521.132812 C 2273.300781 2521.132812 2256.699219 2504.535156 2256.699219 2484.097656 C 2256.699219 2463.65625 2273.300781 2447.0625 2293.738281 2447.0625 "/>
<path fill-rule="evenodd" fill="rgb(91.40625%, 92.1875%, 93.75%)" fill-opacity="1" d="M 2294.339844 2463.789062 C 2301.921875 2463.789062 2308.070312 2469.945312 2308.070312 2477.527344 C 2308.070312 2485.109375 2301.921875 2491.265625 2294.339844 2491.265625 C 2286.75 2491.265625 2280.601562 2485.109375 2280.601562 2477.527344 C 2280.601562 2469.945312 2286.75 2463.789062 2294.339844 2463.789062 "/>
<path fill-rule="evenodd" fill="rgb(21.604919%, 21.604919%, 21.604919%)" fill-opacity="1" d="M 2499.21875 2447.0625 C 2519.660156 2447.0625 2536.261719 2463.65625 2536.261719 2484.097656 C 2536.261719 2504.535156 2519.660156 2521.132812 2499.21875 2521.132812 C 2478.78125 2521.132812 2462.191406 2504.535156 2462.191406 2484.097656 C 2462.191406 2463.65625 2478.78125 2447.0625 2499.21875 2447.0625 "/>
<path fill-rule="evenodd" fill="rgb(91.40625%, 92.1875%, 93.75%)" fill-opacity="1" d="M 2499.820312 2463.789062 C 2507.398438 2463.789062 2513.558594 2469.945312 2513.558594 2477.527344 C 2513.558594 2485.109375 2507.398438 2491.265625 2499.820312 2491.265625 C 2492.238281 2491.265625 2486.078125 2485.109375 2486.078125 2477.527344 C 2486.078125 2469.945312 2492.238281 2463.789062 2499.820312 2463.789062 "/>
</svg>
